<?xml version="1.0" encoding="utf-8"?>
<!-- Generator: Adobe Illustrator 16.0.0, SVG Export Plug-In . SVG Version: 6.00 Build 0)  -->
<!DOCTYPE svg PUBLIC "-//W3C//DTD SVG 1.1//EN" "http://www.w3.org/Graphics/SVG/1.1/DTD/svg11.dtd">
<svg version="1.1" id="Calque_1" xmlns="http://www.w3.org/2000/svg" xmlns:xlink="http://www.w3.org/1999/xlink" x="0px" y="0px"
	 width="701.515px" height="216.666px" viewBox="0 0 701.515 216.666" enable-background="new 0 0 701.515 216.666"
	 xml:space="preserve">
<g>
	<g id="XMLID_1_">
		<g>
			<path d="M694.547,95.398c-0.75,0.39-1.56,0.1-2.32,0.21c-1.92,0.3-3.15-0.43-4.43-1.98c-4.78-5.76-11.02-9.21-18.42-10.28
				c-8.82-1.28-16.8,0.97-23.64,6.71c-6.6,5.54-10.21,12.7-10.71,21.36c-0.04,0.6-0.14,1.2-0.12,1.8c0.02,0.75,0.13,1.5,0.21,2.41
				c11.23,0,22.43,0,33.82,0c0,1.16,0,2.15,0,3.14c0,1,0,2,0,3.14c-10.87,0-21.63,0-32.59,0c0.55,2.22,1.41,4.04,2.41,5.77
				c4.84,8.42,12.07,13.62,21.64,15.06c10.54,1.601,19.55-1.75,26.85-9.54c0.67-0.72,1.3-1.13,2.32-1.06
				c1.28,0.08,2.58,0.02,3.97,0.02c-5.29,8.96-17.17,16.19-30.41,15.4c-15.71-0.93-28.63-11.84-32.15-28.07
				c-2.18,9.82-7.18,17.4-15.4,22.65c-8.25,5.27-17.26,6.76-26.76,4.47c-15.81-3.8-26.58-18.02-26.36-34.02
				c0.22-16.13,11.62-30.3,28.04-33.42c9.25-1.76,17.92,0,25.76,5.29c7.83,5.28,12.6,12.69,14.71,22.14
				c3.69-16.81,16.92-26.39,30.04-27.82C677.487,76.979,689.578,86.469,694.547,95.398z M600.337,142.818
				c13.63-1.069,28.02-13.85,26.56-32.24c-1.34-16.96-15.87-26.78-26.56-27.16C600.337,103.188,600.337,122.949,600.337,142.818z
				 M593.828,142.719c0-19.78,0-39.51,0-59.53c-1.13,0.18-2.12,0.27-3.09,0.48c-15.75,3.44-25.96,18.46-23.41,34.18
				c1.98,12.2,11.36,22.14,23.37,24.61C591.688,142.669,592.708,143.108,593.828,142.719z"/>
			<path d="M609.078,189.368c-1.99,0-3.68,0.061-5.35-0.039c-0.39-0.03-0.81-0.54-1.1-0.91c-2.72-3.44-5.41-6.9-8.12-10.34
				c-14-17.881-28.01-35.761-42.02-53.641c-3.79-4.83-7.57-9.67-11.36-14.51c-0.4-0.51-0.81-1.01-1.3-1.62
				c-1.87,1.47-3.68,2.89-5.48,4.31c-4.89,3.88-9.76,7.79-14.68,11.64c-0.9,0.7-1.31,1.44-1.29,2.63c0.06,6.2,0.03,12.39,0.03,18.59
				c0,0.55,0,1.09,0,1.75c-2.14,0-4.17,0-6.35,0c0-4.399,0-8.75,0-13.42c-0.24,0.28-0.47,0.55-0.71,0.83l-0.01-1.26
				c0.23-0.011,0.47-0.011,0.71-0.011c0-0.72,0-1.26,0-1.789c0.02-6.65-0.06-13.3,0.07-19.951c0.12-6.1,1.68-11.65,4.64-16.61
				c1.34-2.26,2.97-4.4,4.88-6.41c5.5-5.79,12.26-9.28,20.15-10.34c9.62-1.3,18.35,1.05,26.08,6.98c0.12,0.09,0.2,0.21,0.41,0.44
				c-8.29,6.58-16.55,13.15-24.92,19.79C565.248,133.419,587.058,161.269,609.078,189.368z"/>
			<path d="M597.098,54.369c4.86,0.14,7.69,3.89,7.6,7.7c-0.05,4.39-3.43,7.66-7.84,7.59c-4.17-0.07-7.45-3.51-7.4-7.75
				C589.498,57.769,592.968,54.249,597.098,54.369z"/>
			<path d="M514.357,96.019c-0.53,0.09-0.85,0.18-1.16,0.18c-0.91,0.02-1.82-0.05-2.72,0.03c-0.95,0.07-1.55-0.25-2.13-1.05
				c-2.62-3.59-5.91-6.45-9.84-8.54c-5.37-2.86-11.07-4.01-17.17-3.46c-12.01,1.09-22.49,9.77-25.89,21.37
				c-1.05,3.57-1.38,7.19-1.08,11.05c11.25,0,22.45,0,33.75,0c0,2.16,0,4.15,0,6.36c-5.38,0.03-10.8,0.01-16.22,0.01
				c-5.37,0.01-10.75,0-16.25,0c0.58,2.33,1.52,4.33,2.66,6.22c4.84,8.05,11.91,13.07,21.17,14.53c9.8,1.55,18.43-1.21,25.62-8.11
				c0.96-0.92,1.89-1.35,3.18-1.26c0.98,0.07,1.97,0.04,3.06,0.03l0.01,1.26c-9.2,10.44-20.48,14.979-34.08,12.16
				c-14-2.9-22.6-11.96-26.67-25.45c-5.04,15.69-15.51,24.77-32.19,26.25c-17.04-0.03-28.32-8.36-34.83-23.95
				c0,7.851,0,15.69,0,23.61c-2.1,0-4.09,0-6.22,0c0-8.38,0-16.71,0-25.01c-1.21-0.34-56.13-0.4-57.92-0.08c0,22.36,0,44.75,0,67.22
				c-2.16,0-4.15,0-6.33,0c0-20.771,0-41.47,0-62.18c-0.09-0.04-0.18-0.08-0.27-0.11c-4.97,9.8-12.65,16.29-23.33,18.92
				c-7.62,1.87-15.09,1.12-22.25-2.12c-14.76-6.67-22.89-22.58-19.59-38.48c3.17-15.28,16.2-26.85,32.52-27.48
				c16.35-0.62,31.43,10.25,35.31,28.05c2.33-10.28,7.72-18.08,16.59-23.35c5.87-3.49,12.27-5.05,19.06-4.69
				c15.65,0.84,28.25,11.52,32.09,26.87c1.15-3.69,2.41-6.98,4.31-9.99c1.9-3,4.19-5.66,6.87-7.98c2.73-2.36,5.77-4.21,9.08-5.62
				c3.25-1.38,6.67-2.16,10.3-2.57c0-25.43,0-50.8,0-76.26c2.13,0,4.12,0,6.13,0c0.02,0.01,0.06,0.05,0.09,0.09
				c0.03,0.03,0.07,0.07,0.09,0.12c0.01,0.04,0.02,0.09,0.03,0.14c0.01,0.05,0.01,0.1,0.02,0.15c0,0.1,0.01,0.2,0.01,0.3
				c0,0.11,0,0.21,0,0.31c0,24.83,0,49.67,0,74.5c0,0.1,0.01,0.2,0.02,0.3c0,0.05,0,0.11,0.02,0.15c0.02,0.05,0.05,0.09,0.15,0.23
				c7.14,0.82,13.58,3.5,19.11,8.28c5.53,4.79,9.13,10.78,10.99,17.92c5.6-16.8,16.89-25.93,34.76-26.37
				C497.908,79.249,507.547,85.049,514.357,96.019z M446.888,114.139c0.57-17.45-13.46-29.9-26.64-30.8c0,19.82,0,39.63,0,59.439
				C432.968,141.979,446.348,130.339,446.888,114.139z M413.718,142.688c0-19.78,0-39.55,0-59.33c-7.59,0.24-17.82,5.39-22.97,14.97
				c-5.83,10.86-5.3,21.58,1.48,31.86C397.348,137.959,406.987,142.839,413.718,142.688z M367.167,115.579
				c0.04-0.07,0.09-0.15,0.14-0.23c-11.59-9.22-23.18-18.45-34.72-27.64c-9.89,6.46-14.37,18.81-12.8,27.87
				C335.567,115.579,351.368,115.579,367.167,115.579z M311.317,115.059c1.65-15.07-9.57-31.21-27.72-32.59
				c-15.34-1.17-30.16,9.86-31.98,26.83c-1.83,17.12,10.86,31.75,27.5,33.12c15.48,1.27,28.04-9.721,30.83-20.95
				c-8.99,0-17.97,0-26.99,0c-0.21,2.74,0.1,5.4-0.18,8.07c-2.12,0-4.11,0-6.18,0c0-4.86,0-9.61,0-14.48
				C288.188,115.059,299.698,115.059,311.317,115.059z"/>
			<path d="M190.618,105.479c3.86,18.91-8.27,36.87-26.36,40.61c-14.02,2.91-25.66-1.521-34.8-12.54c-0.18-0.23-0.36-0.46-0.54-0.69
				c-0.11,0.04-0.22,0.07-0.33,0.11c0,9.399,0,18.81,0,28.22c0,9.36,0,18.72,0,28.18c-2.12,0-4.11,0-6.3,0
				c-0.02-0.579-0.06-1.159-0.06-1.729c-0.01-7.56-0.01-15.12-0.01-22.67c0-17.33-0.01-34.66,0.02-51.99c0-4.31,0.58-8.55,2.2-12.57
				c4.89-12.15,13.73-19.66,26.67-21.96C169.478,75.188,186.938,87.418,190.618,105.479z M185.817,120.199
				c3.66-13.47-2.7-26.65-12.71-32.89c-14.85,11.79-29.67,23.55-44.45,35.29c3,9.51,13.07,19.61,27.51,19.9
				C170.147,142.769,182.167,133.669,185.817,120.199z"/>
			<path d="M117.978,77.339c4.72,15.92,1.32,40.44-18.46,56.7c-19.41,15.949-47.27,16.909-67.71,2.189
				c-21.09-15.19-26.54-40.18-21.39-58.92c2.14,0,4.2,0,6.34,0c-4.48,18.88-0.49,35.52,13.41,49.21
				c9.7,9.561,21.7,14.14,35.29,13.73c15.95-0.48,28.94-7.25,38.43-20.11c9.49-12.88,11.67-27.29,7.75-42.8
				C113.788,77.339,115.888,77.339,117.978,77.339z"/>
			<path d="M100.748,77.299c4.94,12.16,2.83,31.19-12.1,43.26c-14.15,11.44-34.57,11.58-48.93-0.08
				c-14.92-12.12-16.86-31.03-12.03-43.18C52.038,77.299,76.397,77.299,100.748,77.299z"/>
		</g>
		<g>
		</g>
	</g>
</g>
<g>
</g>
<g>
</g>
<g>
</g>
<g>
</g>
<g>
</g>
<g>
</g>
</svg>
