<?xml version="1.0" encoding="utf-8"?>
<!-- Generator: Adobe Illustrator 16.0.0, SVG Export Plug-In . SVG Version: 6.00 Build 0)  -->
<!DOCTYPE svg PUBLIC "-//W3C//DTD SVG 1.1//EN" "http://www.w3.org/Graphics/SVG/1.1/DTD/svg11.dtd">
<svg version="1.1" id="Calque_1" xmlns="http://www.w3.org/2000/svg" xmlns:xlink="http://www.w3.org/1999/xlink" x="0px" y="0px"
	 width="487.879px" height="163.637px" viewBox="0 0 487.879 163.637" enable-background="new 0 0 487.879 163.637"
	 xml:space="preserve">
<g>
	<g>
		<path fill-rule="evenodd" clip-rule="evenodd" fill="none" d="M390.05,151.702c-83.729,0-167.456,0-251.185,0
			c0.01-0.754,0.029-1.51,0.029-2.264c0.002-17.58,0.001-35.159,0.001-52.738c0-0.523,0-1.049,0-1.572
			c0.567,0.288,0.847,0.624,1.129,0.956c9.085,10.667,20.554,14.889,34.29,12.16c15.33-3.046,26.726-16.708,27.184-32.401
			c0.293-10.048-3.021-18.743-10.148-25.777c-8.154-8.045-18.135-11.419-29.437-9.582c-14.479,2.354-23.825,10.933-28.175,24.917
			c-1.146,3.686-1.234,7.508-1.225,11.355c0.051,20.449,0.025,40.9,0.023,61.35c-0.001,4.533-0.014,9.064-0.02,13.596
			c-41.411,0-82.822,0-124.232,0c0-63.274,0-126.549,0-189.824c173.603,0,347.205,0,520.809,0c0,63.275,0,126.55,0,189.824
			c-44.836,0-89.673,0-134.51,0c-0.007-0.753-0.02-1.506-0.02-2.26c-0.001-21.359,0-42.719,0-64.078c0-0.586,0-1.17,0-1.804
			c10.111,0,20.015,0,29.97,0c0.167,0.47,0.328,0.884,0.464,1.308c5.576,17.348,22.959,27.293,40.761,23.309
			c3.412-0.765,6.633-2.039,9.631-3.844c0.399-0.239,0.947-0.648,0.976-1.014c0.121-1.572,0.092-3.158,0.029-4.77
			c-0.311,0.063-0.421,0.057-0.5,0.104c-0.215,0.129-0.418,0.279-0.625,0.423c-6.445,4.457-13.565,6.348-21.326,5.189
			c-11.193-1.669-19.035-7.859-23.708-18.137c-0.988-2.172-0.881-2.662,1.766-2.658c13.753,0.025,27.505,0.012,41.259,0.012
			c0.591,0,1.182,0,1.735,0c0.341-1.657,0.294-5.18-0.044-6.245c-0.045-0.02-0.088-0.046-0.135-0.058
			c-0.098-0.021-0.197-0.051-0.295-0.051c-11.789-0.008-23.576-0.012-35.364-0.016c-0.201,0-0.403,0-0.604-0.011
			c-0.099-0.006-0.197-0.03-0.293-0.06c-0.037-0.012-0.074-0.055-0.094-0.092c-0.022-0.043-0.024-0.096-0.047-0.191
			c0.49-0.398,0.994-0.813,1.506-1.221c8.244-6.544,16.49-13.087,24.733-19.633c3.786-3.007,7.575-6.01,11.349-9.033
			c1.053-0.843,1.004-1.326-0.135-2.037c-0.426-0.266-0.871-0.505-1.314-0.741c-7.458-3.965-15.348-4.976-23.578-3.304
			c-15.049,3.056-26.51,16.514-27.16,31.825c-0.063,1.439-0.009,2.883-0.009,4.408c-9.7,0-19.241,0-28.87,0
			c-0.029-0.36-0.063-0.649-0.074-0.939c-0.09-2.428,0.145-4.824,0.627-7.204c2.579-12.731,13.979-22.761,26.89-23.61
			c0.853-0.056,1.531-0.316,2.19-0.84c11.47-9.124,22.951-18.232,34.427-27.35c0.286-0.228,0.528-0.51,1.057-1.027
			c-2.102,0-3.847,0.036-5.589-0.014c-0.952-0.027-1.712,0.218-2.477,0.829c-9.447,7.542-18.934,15.032-28.367,22.588
			c-1.109,0.889-2.254,1.356-3.635,1.57c-11.4,1.771-19.888,7.767-25.521,17.807c-0.825,1.472-1.461,3.05-2.236,4.69
			c-0.195-0.435-0.374-0.785-0.512-1.151c-5.436-14.43-20.336-24.591-37.446-21.913c-13.363,2.091-22.445,9.806-27.349,22.36
			c-1.739,4.452-2.19,9.134-2.008,13.935c0.196,5.182,0.04,10.375,0.027,15.564c0,0.183-0.107,0.365-0.195,0.648
			c-1.129,0-2.236,0.067-3.331-0.018c-1.306-0.104-2.166,0.347-3.082,1.356c-7.431,8.186-16.714,11.61-27.608,9.819
			c-16.938-2.782-27.916-19.262-24.289-36.054c3.587-16.6,20.671-27,37.05-22.565c6.276,1.699,11.445,5.094,15.603,10.071
			c0.277,0.332,0.637,0.811,0.981,0.831c1.62,0.096,3.249,0.103,4.976,0.005c-8.561-14.56-28.562-21.354-45.49-12.343
			c-17.273,9.195-23.301,30.547-13.9,47.311c4.705,8.393,11.742,14.131,21.09,16.426c15.76,3.869,28.363-1.426,38.219-14.432
			c0,2.104,0,3.861,0,5.617c0,1.713-0.01,3.426,0.004,5.139c0.014,1.736-0.066,3.479,0.051,5.158c1.554,0,2.883,0,4.335,0
			c0-8.619,0-17.113,0-25.579c1.493-0.331,59.758-0.306,61.015,0.023c0,0.574,0,1.175,0,1.776c0,14.609,0.002,29.219-0.001,43.827
			C390.068,136.794,390.057,144.249,390.05,151.702z M37.767,39.536C32.301,54.816,37,73.401,51.824,84.021
			c14.401,10.317,34.115,9.528,47.622-1.822c13.982-11.751,16.513-30.12,11.595-42.663C86.664,39.536,62.26,39.536,37.767,39.536z
			 M20.551,39.554c-5.608,21.852,2.631,46.562,23.529,60.174c20.563,13.393,47.217,11.801,65.978-3.852
			c19.376-16.167,22.839-40.297,18.196-56.309c-2.081,0-4.171,0-6.434,0c1.951,7.054,2.425,14.081,1.299,21.186
			c-1.135,7.162-3.719,13.766-7.765,19.788c-4.02,5.981-9.114,10.847-15.251,14.626c-15.783,9.722-35.903,9.632-51.721-0.268
			c-8.009-5.013-14.13-11.774-18.231-20.28c-5.418-11.235-6.333-22.932-3.088-35.064C24.82,39.554,22.727,39.554,20.551,39.554z"/>
		<path fill-rule="evenodd" clip-rule="evenodd" d="M390.05,151.702c0.007-7.453,0.019-14.908,0.02-22.362
			c0.003-14.608,0.001-29.218,0.001-43.827c0-0.602,0-1.202,0-1.776c-1.257-0.329-59.521-0.354-61.015-0.023
			c0,8.466,0,16.96,0,25.579c-1.452,0-2.781,0-4.335,0c-0.117-1.68-0.037-3.422-0.051-5.158c-0.014-1.713-0.004-3.426-0.004-5.139
			c0-1.756,0-3.513,0-5.617c-9.855,13.006-22.459,18.301-38.219,14.432c-9.348-2.295-16.385-8.033-21.09-16.426
			c-9.4-16.764-3.373-38.116,13.9-47.311c16.929-9.011,36.93-2.217,45.49,12.343c-1.727,0.098-3.355,0.091-4.976-0.005
			c-0.345-0.021-0.704-0.5-0.981-0.831c-4.157-4.978-9.326-8.372-15.603-10.071c-16.379-4.435-33.463,5.965-37.05,22.565
			c-3.627,16.792,7.352,33.272,24.289,36.054c10.895,1.791,20.178-1.634,27.608-9.819c0.916-1.01,1.776-1.46,3.082-1.356
			c1.095,0.085,2.202,0.018,3.331,0.018c0.088-0.283,0.195-0.466,0.195-0.648c0.013-5.189,0.169-10.383-0.027-15.564
			c-0.183-4.801,0.269-9.483,2.008-13.935c4.903-12.554,13.985-20.269,27.349-22.36c17.11-2.678,32.011,7.482,37.446,21.913
			c0.138,0.366,0.316,0.716,0.512,1.151c0.775-1.64,1.411-3.218,2.236-4.69c5.634-10.04,14.121-16.036,25.521-17.807
			c1.381-0.214,2.525-0.682,3.635-1.57c9.434-7.556,18.92-15.046,28.367-22.588c0.765-0.611,1.524-0.856,2.477-0.829
			c1.742,0.05,3.487,0.014,5.589,0.014c-0.528,0.517-0.771,0.799-1.057,1.027c-11.476,9.117-22.957,18.226-34.427,27.35
			c-0.659,0.524-1.338,0.784-2.19,0.84c-12.911,0.849-24.311,10.879-26.89,23.61c-0.482,2.38-0.717,4.776-0.627,7.204
			c0.011,0.29,0.045,0.579,0.074,0.939c9.629,0,19.17,0,28.87,0c0-1.525-0.054-2.969,0.009-4.408
			c0.65-15.311,12.111-28.769,27.16-31.825c8.23-1.672,16.12-0.662,23.578,3.304c0.443,0.236,0.889,0.475,1.314,0.741
			c1.139,0.71,1.188,1.194,0.135,2.037c-3.773,3.022-7.563,6.026-11.349,9.033c-8.243,6.545-16.489,13.088-24.733,19.633
			c-0.512,0.407-1.016,0.822-1.506,1.221c0.022,0.096,0.024,0.148,0.047,0.191c0.02,0.037,0.057,0.08,0.094,0.092
			c0.096,0.029,0.194,0.054,0.293,0.06c0.201,0.011,0.403,0.011,0.604,0.011c11.788,0.004,23.575,0.008,35.364,0.016
			c0.098,0,0.197,0.029,0.295,0.051c0.047,0.012,0.09,0.038,0.135,0.058c0.338,1.065,0.385,4.588,0.044,6.245
			c-0.554,0-1.145,0-1.735,0c-13.754,0-27.506,0.014-41.259-0.012c-2.646-0.004-2.754,0.486-1.766,2.658
			c4.673,10.277,12.515,16.468,23.708,18.137c7.761,1.158,14.881-0.732,21.326-5.189c0.207-0.144,0.41-0.294,0.625-0.423
			c0.079-0.048,0.189-0.042,0.5-0.104c0.063,1.611,0.092,3.197-0.029,4.77c-0.028,0.365-0.576,0.774-0.976,1.014
			c-2.998,1.805-6.219,3.079-9.631,3.844c-17.802,3.984-35.185-5.961-40.761-23.309c-0.136-0.424-0.297-0.838-0.464-1.308
			c-9.955,0-19.858,0-29.97,0c0,0.634,0,1.218,0,1.804c0,21.359-0.001,42.719,0,64.078c0,0.754,0.013,1.507,0.02,2.26
			C393.072,151.702,391.562,151.702,390.05,151.702z M375.945,77.042c0.033-0.09,0.067-0.18,0.102-0.27
			c-11.289-8.987-22.577-17.974-33.932-27.014c-5.219,3.664-8.971,8.392-11.175,14.309c-1.556,4.175-2.229,8.482-1.775,12.975
			C344.895,77.042,360.42,77.042,375.945,77.042z"/>
		<path fill-rule="evenodd" clip-rule="evenodd" d="M132.518,151.702c0.006-4.531,0.019-9.063,0.02-13.596
			c0.002-20.449,0.027-40.9-0.023-61.35c-0.01-3.848,0.078-7.669,1.225-11.355c4.35-13.985,13.695-22.563,28.175-24.917
			c11.302-1.837,21.282,1.537,29.437,9.582c7.127,7.034,10.441,15.729,10.148,25.777c-0.458,15.693-11.854,29.355-27.184,32.401
			c-13.736,2.729-25.205-1.493-34.29-12.16c-0.282-0.332-0.562-0.668-1.129-0.956c0,0.523,0,1.049,0,1.572
			c0,17.579,0.001,35.158-0.001,52.738c0,0.754-0.02,1.51-0.029,2.264C136.749,151.702,134.633,151.702,132.518,151.702z
			 M138.896,84.687c2.972,9.682,13.582,19.707,27.7,19.898c13.727,0.185,26.296-9.086,29.658-23.107
			c3.253-13.568-3.543-26.444-12.979-32.029C168.489,61.189,153.672,72.954,138.896,84.687z"/>
		<path fill-rule="evenodd" clip-rule="evenodd" d="M37.767,39.536c24.493,0,48.897,0,73.274,0
			c4.918,12.543,2.388,30.912-11.595,42.663c-13.507,11.351-33.221,12.14-47.622,1.822C37,73.401,32.301,54.816,37.767,39.536z"/>
		<path fill-rule="evenodd" clip-rule="evenodd" d="M20.551,39.554c2.176,0,4.27,0,6.513,0c-3.245,12.133-2.33,23.83,3.088,35.064
			c4.102,8.506,10.223,15.268,18.231,20.28c15.817,9.899,35.938,9.989,51.721,0.268c6.137-3.779,11.231-8.645,15.251-14.626
			c4.046-6.021,6.63-12.626,7.765-19.788c1.126-7.105,0.652-14.132-1.299-21.186c2.263,0,4.353,0,6.434,0
			c4.643,16.012,1.18,40.142-18.196,56.309c-18.761,15.652-45.415,17.244-65.978,3.852C23.182,86.115,14.942,61.406,20.551,39.554z"
			/>
		<path fill-rule="evenodd" clip-rule="evenodd" fill="none" d="M375.945,77.042c-15.525,0-31.051,0-46.78,0
			c-0.454-4.492,0.22-8.8,1.775-12.975c2.204-5.917,5.956-10.646,11.175-14.309c11.354,9.04,22.643,18.027,33.932,27.014
			C376.013,76.862,375.979,76.952,375.945,77.042z"/>
		<path fill-rule="evenodd" clip-rule="evenodd" fill="none" d="M138.896,84.687c14.776-11.732,29.594-23.498,44.38-35.238
			c9.436,5.585,16.231,18.461,12.979,32.029c-3.362,14.021-15.932,23.292-29.658,23.107
			C152.478,104.394,141.867,94.368,138.896,84.687z"/>
	</g>
</g>
<g>
</g>
<g>
</g>
<g>
</g>
<g>
</g>
<g>
</g>
<g>
</g>
</svg>
