<?xml version="1.0" encoding="utf-8"?>
<!-- Generator: Adobe Illustrator 16.0.0, SVG Export Plug-In . SVG Version: 6.00 Build 0)  -->
<!DOCTYPE svg PUBLIC "-//W3C//DTD SVG 1.1//EN" "http://www.w3.org/Graphics/SVG/1.1/DTD/svg11.dtd">
<svg version="1.1" id="Calque_1" xmlns="http://www.w3.org/2000/svg" xmlns:xlink="http://www.w3.org/1999/xlink" x="0px" y="0px"
	 width="339px" height="237px" viewBox="0 0 339 237" enable-background="new 0 0 339 237" xml:space="preserve">
<g>
	<path fill-rule="evenodd" clip-rule="evenodd" fill="none" d="M186.178,209.304c-48.938,0-97.875,0-146.88,0
		c0-39.28,0-78.56,0-117.84c0.054,0.145,0.138,0.285,0.158,0.433c0.381,2.885,0.574,5.808,1.16,8.649
		c3.304,16.028,11.188,29.408,23.918,39.696c16.766,13.55,35.957,18.233,57.075,14.195c15.939-3.047,29.201-11.043,39.454-23.633
		c14.003-17.196,18.658-36.87,14.159-58.517c-3.24-15.589-11.357-28.426-23.662-38.535c-9.381-7.708-20.099-12.573-32.101-14.536
		c-2.311-0.378-4.641-0.638-6.963-0.952c60.32,0,120.64,0,180.96,0c0,22.32,0,44.64,0,66.96c-0.08-0.548-0.171-1.095-0.236-1.646
		c-0.267-2.216-0.397-4.458-0.808-6.647c-4.833-25.823-28.353-44.353-54.659-43.15c-7.398,0.338-14.427,2.071-21.069,5.329
		c-9.124,4.474-16.297,11.102-21.841,19.607c-5.932,9.101-7.634,19.375-8.65,29.873c0,35.519,0.001,71.037-0.001,106.556
		C186.193,199.865,186.184,204.584,186.178,209.304z"/>
	<path fill-rule="evenodd" clip-rule="evenodd" fill="none" d="M293.458,88.823c0,40.16,0,80.32,0,120.48
		c-33.36,0-66.721,0-100.08,0c-0.02-0.198-0.055-0.395-0.055-0.593c-0.003-31.552-0.003-63.104,0.002-94.657
		c0-0.281,0.067-0.562,0.135-1.095c2.666,4.676,5.701,8.73,9.413,12.239c12.986,12.276,28.396,17.105,46.001,14.387
		c11.775-1.818,21.793-7.315,29.974-16.002c7.603-8.073,12.277-17.615,13.898-28.61C293.046,92.933,293.224,90.874,293.458,88.823z"
		/>
	<path fill-rule="evenodd" clip-rule="evenodd" d="M293.458,88.823c-0.234,2.051-0.412,4.109-0.712,6.15
		c-1.621,10.995-6.296,20.537-13.898,28.61c-8.181,8.687-18.198,14.184-29.974,16.002c-17.604,2.718-33.015-2.111-46.001-14.387
		c-3.712-3.508-6.747-7.563-9.413-12.239c-0.067,0.533-0.135,0.814-0.135,1.095c-0.005,31.552-0.005,63.104-0.002,94.657
		c0,0.198,0.035,0.395,0.055,0.593c-2.4,0-4.8,0-7.2,0c0.006-4.72,0.016-9.439,0.016-14.158
		c0.002-35.519,0.001-71.037,0.001-106.556c1.017-10.497,2.719-20.771,8.65-29.873c5.544-8.506,12.717-15.133,21.841-19.607
		c6.643-3.258,13.671-4.991,21.069-5.329c26.307-1.203,49.826,17.327,54.659,43.15c0.41,2.189,0.541,4.431,0.808,6.647
		c0.065,0.55,0.156,1.097,0.236,1.646C293.458,86.423,293.458,87.624,293.458,88.823z M289.482,87.402c-32.259,0-64.152,0-96.104,0
		c-0.022,0.303-0.054,0.535-0.054,0.767c-0.004,4.559-0.017,9.118,0.013,13.676c0.004,0.581,0.163,1.184,0.362,1.737
		c8.716,24.236,34.489,37.902,59.256,30.867c19.224-5.46,30.948-18.47,35.389-37.941C289.012,93.583,289.107,90.527,289.482,87.402z
		"/>
	<path fill-rule="evenodd" clip-rule="evenodd" d="M112.498,18.264c2.322,0.314,4.652,0.574,6.963,0.952
		c12.001,1.963,22.719,6.828,32.101,14.536c12.305,10.109,20.421,22.946,23.662,38.535c4.499,21.647-0.156,41.321-14.159,58.517
		c-10.253,12.59-23.515,20.586-39.454,23.633c-21.118,4.038-40.309-0.645-57.075-14.195c-12.729-10.288-20.614-23.668-23.918-39.696
		c-0.586-2.842-0.779-5.765-1.16-8.649c-0.02-0.148-0.104-0.289-0.158-0.433c0-2.96,0-5.92,0-8.88
		c0.055-0.144,0.141-0.284,0.159-0.432c0.289-2.414,0.424-4.855,0.876-7.238c3.362-17.733,12.197-32.132,26.608-43.014
		c9.276-7.004,19.721-11.312,31.253-12.921c1.806-0.252,3.616-0.478,5.424-0.715C106.578,18.264,109.538,18.264,112.498,18.264z
		 M108.036,150.76c35.049,0.037,63.293-28.244,63.762-62.802c0.485-35.662-28.194-64.423-63.23-64.672
		c-35.494-0.252-64.108,28.364-64.223,63.29C44.227,122.182,72.678,150.76,108.036,150.76z"/>
	<path fill-rule="evenodd" clip-rule="evenodd" fill="none" d="M103.618,18.264c-1.808,0.237-3.618,0.463-5.424,0.715
		c-11.532,1.609-21.977,5.917-31.253,12.921C52.53,42.782,43.695,57.181,40.333,74.914c-0.452,2.382-0.587,4.824-0.876,7.238
		c-0.018,0.148-0.104,0.288-0.159,0.432c0-21.42,0-42.84,0-64.32C60.737,18.264,82.178,18.264,103.618,18.264z"/>
	<path fill-rule="evenodd" clip-rule="evenodd" fill="none" d="M289.482,87.402c-0.375,3.125-0.471,6.181-1.139,9.106
		c-4.44,19.471-16.165,32.481-35.389,37.941c-24.767,7.035-50.54-6.631-59.256-30.867c-0.199-0.553-0.358-1.156-0.362-1.737
		c-0.029-4.559-0.017-9.118-0.013-13.676c0-0.232,0.031-0.463,0.054-0.767C225.33,87.402,257.224,87.402,289.482,87.402z"/>
	<path fill-rule="evenodd" clip-rule="evenodd" fill="none" d="M108.036,150.76c-35.357,0-63.809-28.579-63.691-64.184
		c0.115-34.926,28.729-63.542,64.223-63.29c35.036,0.249,63.716,29.01,63.23,64.672C171.329,122.516,143.084,150.797,108.036,150.76
		z M108.035,139.462c28.52,0.255,52.605-23.097,52.716-52.428c0.108-28.81-23.019-52.739-52.297-52.884
		c-29.482-0.146-53.087,23.422-53.078,52.704C55.386,116.421,79.624,139.693,108.035,139.462z"/>
	<path fill-rule="evenodd" clip-rule="evenodd" d="M108.035,139.462c-28.411,0.231-52.649-23.041-52.659-52.608
		c-0.009-29.281,23.595-52.849,53.078-52.704c29.278,0.145,52.405,24.074,52.297,52.884
		C160.64,116.365,136.555,139.717,108.035,139.462z"/>
</g>
<g>
</g>
<g>
</g>
<g>
</g>
<g>
</g>
<g>
</g>
<g>
</g>
</svg>
