<?xml version="1.0" encoding="utf-8"?>
<!-- Generator: Adobe Illustrator 16.0.0, SVG Export Plug-In . SVG Version: 6.00 Build 0)  -->
<!DOCTYPE svg PUBLIC "-//W3C//DTD SVG 1.1//EN" "http://www.w3.org/Graphics/SVG/1.1/DTD/svg11.dtd">
<svg version="1.1" id="Calque_1" xmlns="http://www.w3.org/2000/svg" xmlns:xlink="http://www.w3.org/1999/xlink" x="0px" y="0px"
	 width="950.667px" height="321.333px" viewBox="0 0 950.667 321.333" enable-background="new 0 0 950.667 321.333"
	 xml:space="preserve">
<circle fill="none" stroke="#010202" stroke-width="5" stroke-miterlimit="10" cx="7401.428" cy="200.606" r="66.266"/>
<circle fill="none" stroke="#010202" stroke-width="4" stroke-miterlimit="10" cx="7987.428" cy="200.606" r="51.266"/>
<line fill="none" stroke="#010202" stroke-width="8" stroke-miterlimit="10" x1="7937.667" y1="200" x2="7987.667" y2="200"/>
<rect x="8004.667" y="171" fill="#FFFFFF" width="55" height="59"/>
<circle fill="none" stroke="#010202" stroke-width="4" stroke-miterlimit="10" cx="7533.428" cy="200.606" r="51.266"/>
<circle fill="#010202" cx="7401.428" cy="200.404" r="52.627"/>
<circle fill="none" stroke="#010202" stroke-width="4" stroke-miterlimit="10" cx="8224.428" cy="199.606" r="51.266"/>
<line fill="none" stroke="#010202" stroke-width="7" stroke-miterlimit="10" x1="7483.167" y1="201" x2="7483.167" y2="323"/>
<line fill="none" stroke="#010202" stroke-width="10" stroke-miterlimit="10" x1="7917.667" y1="29" x2="7917.667" y2="253"/>
<line fill="none" stroke="#010202" stroke-width="4" stroke-miterlimit="10" x1="7732.667" y1="195" x2="7732.667" y2="209"/>
<line fill="none" stroke="#FFFFFF" stroke-width="6" stroke-miterlimit="10" x1="8044.491" y1="232.009" x2="8084.956" y2="199.883"/>
<line fill="none" stroke="#010202" stroke-width="8" stroke-miterlimit="10" x1="7733.667" y1="199" x2="7787.667" y2="199"/>
<line fill="none" stroke="#010202" stroke-width="8" stroke-miterlimit="10" x1="8173.667" y1="199" x2="8223.666" y2="199"/>
<circle fill="none" stroke="#010202" stroke-width="4" stroke-miterlimit="10" cx="7736.428" cy="200.606" r="51.266"/>
<line fill="none" stroke="#FFFFFF" stroke-width="6" stroke-miterlimit="10" x1="8135.311" y1="249.717" x2="8090.723" y2="192.8"/>
<line fill="none" stroke="#FFFFFF" stroke-width="6" stroke-miterlimit="10" x1="8125.311" y1="255.717" x2="8080.723" y2="198.8"/>
<line fill="none" stroke="#010202" stroke-width="7" stroke-miterlimit="10" x1="8193.783" y1="334.018" x2="8084.723" y2="194.8"/>
<circle fill="#010202" cx="8153.606" cy="125.549" r="8.668"/>
<line fill="none" stroke="#010202" stroke-width="10" stroke-miterlimit="10" x1="8153.667" y1="147" x2="8153.667" y2="254"/>
<line fill="none" stroke="#010202" stroke-width="7" stroke-miterlimit="10" x1="7898.167" y1="200" x2="7898.167" y2="254"/>
<line fill="none" stroke="#010202" stroke-width="7" stroke-miterlimit="10" x1="7802.167" y1="201" x2="7802.167" y2="323"/>
<line fill="none" stroke="#010202" stroke-width="7" stroke-miterlimit="10" x1="8045.167" y1="200" x2="8045.167" y2="254"/>
<path fill="#010202" d="M7901.688,201c0,0,0.006-0.231,0.006-0.303c0-28.313-22.953-51.31-51.266-51.31
	s-51.266,23.019-51.266,51.333c0,0.071,0.006,0.28,0.006,0.28H7901.688z"/>
<path fill="#010202" d="M7584.688,201c0,0,0.006-0.231,0.006-0.303c0-28.313-22.953-51.31-51.266-51.31
	s-51.266,23.019-51.266,51.333c0,0.071,0.006,0.28,0.006,0.28H7584.688z"/>
<path fill="#010202" d="M8137.739,173.719c-0.035-0.063-0.064-0.125-0.1-0.188c-13.734-24.759-44.941-33.693-69.697-19.957
	c-24.758,13.734-33.695,44.939-19.959,69.697c0.035,0.063,0.072,0.121,0.107,0.184L8137.739,173.719z"/>
<rect x="8246.666" y="171" fill="#FFFFFF" width="55" height="59"/>
<g>
	<path fill-rule="evenodd" clip-rule="evenodd" fill="none" d="M145.798,184.76c0-55.84,0-111.68,0-167.52
		c76.32,0,152.64,0,228.96,0c0.019,0.598,0.055,1.196,0.055,1.795c0.002,73.471,0.002,146.943,0.002,220.415
		c0,0.399-0.073,0.82,0.029,1.192c0.072,0.265,0.379,0.661,0.586,0.664c3.108,0.043,6.218,0.029,9.481,0.029
		c0-0.636,0-1.142,0-1.649c0-73.671,0-147.343-0.003-221.014c0-0.478-0.046-0.955-0.07-1.432c126.39,0,252.78,0,379.185,0
		c0,117.34,0,234.682,0,352.051c-206.065,0-412.145,0-618.225,0c0-58.7,0-117.416,0-176.131c0.155,1.021,0.325,2.04,0.463,3.063
		c1.587,11.708,6.446,21.903,14.834,30.168c14.102,13.896,31.082,18.834,50.36,14.437c28.347-6.466,46.103-35.227,39.636-63.562
		c-7.042-30.856-39.159-49.034-69.095-38.68c-18.728,6.477-30.37,19.806-34.995,39.13
		C146.448,180.028,146.192,182.411,145.798,184.76z M600.675,162.054c-1.966-2.758-3.635-5.554-5.736-7.973
		c-12.831-14.766-29.027-20.869-48.33-17.74c-14.53,2.355-25.848,10.097-34.074,22.302c-6.284,9.325-8.58,19.812-8.634,30.861
		c-0.083,17.158-0.022,34.315-0.02,51.474c0,0.42,0.036,0.84,0.054,1.259c2.366,0,4.59,0,6.976,0c0-0.528,0-0.995,0-1.463
		c0-9.278,0.008-18.558-0.015-27.836c-0.002-0.767,0.195-1.203,0.908-1.597c12.021-6.633,24.028-13.289,36.013-19.985
		c0.847-0.473,1.194-0.284,1.726,0.396c11.69,14.959,23.404,29.9,35.112,44.846c19.004,24.259,38.01,48.517,57.002,72.784
		c0.48,0.614,0.963,0.926,1.788,0.902c2.278-0.063,4.559-0.019,6.838-0.026c0.289-0.001,0.579-0.06,1.016-0.108
		c-32.117-40.999-64.126-81.86-96.201-122.806c7.655-4.253,15.179-8.437,22.708-12.614
		C585.335,170.553,592.868,166.381,600.675,162.054z M363.841,242.297c0.053-0.304,0.091-0.421,0.091-0.537
		c0.005-8.96-0.106-17.922,0.042-26.879c0.146-8.899-0.403-17.797,0.328-26.708c0.284-3.462-0.421-7.105-1.218-10.539
		c-6.066-26.126-30.35-42.931-56.888-39.438c-12.68,1.669-23.268,7.418-31.696,16.982c-8.288,9.404-12.459,20.485-12.772,33.018
		c-0.007,0.295-0.082,0.826-0.191,0.844c-1.008,0.167-0.712,0.928-0.712,1.503c-0.009,39.798-0.008,79.597-0.006,119.396
		c0,0.391,0.033,0.781,0.053,1.234c2.366,0,4.66,0,7.089,0c0-40.635,0-81.207,0-121.797c29.672,0,59.209,0,88.855,0
		c0,0.58,0,1.092,0,1.604c0,16.559,0,33.119,0,49.679c0,0.319-0.078,0.669,0.026,0.951c0.099,0.267,0.385,0.653,0.597,0.658
		C359.549,242.316,361.662,242.297,363.841,242.297z M400.983,184.304c0.304-1.805,0.528-3.421,0.853-5.016
		c5.565-27.382,32.624-44.671,59.745-38.117c10.93,2.641,19.903,8.448,26.982,17.188c0.284,0.351,0.678,0.832,1.048,0.857
		c1.453,0.099,2.917,0.041,4.469,0.041c-8.934-14.399-29.849-27.467-54.773-22.451c-24.555,4.942-43.818,27.435-42.483,54.979
		c1.165,24.023,19.092,46.145,45.66,50.021c23.101,3.37,43.225-8.976,51.932-23.52c-1.244,0-2.442,0.04-3.636-0.014
		c-0.789-0.036-1.288,0.227-1.804,0.857c-12.361,15.069-28.292,21.636-47.47,18.263c-18.825-3.311-31.454-14.698-38.08-32.631
		c-1.468-3.973-2.195-8.132-2.469-12.501c16.337,0,32.597,0,48.925,0c0-2.703,0-5.278,0-7.957
		C433.644,184.304,417.462,184.304,400.983,184.304z M638.088,183.265c0.074-0.739,0.129-1.292,0.184-1.844
		c0.012-0.119,0.01-0.24,0.029-0.358c1.752-11.221,6.49-20.981,14.89-28.656c14.702-13.433,31.715-16.892,50.566-10.632
		c9.23,3.065,16.645,8.858,22.573,16.557c0.275,0.358,0.661,0.855,1.024,0.881c1.451,0.102,2.912,0.042,4.465,0.042
		c-10.413-16.959-32.945-29.014-57.716-22.943c-24.039,5.892-42.572,28.916-40.135,56.603c2.126,24.156,21.167,45.37,47.512,48.131
		c11.629,1.219,22.553-1.158,32.655-7.086c6.693-3.928,12.238-9.101,16.825-15.672c-1.603,0-2.922-0.061-4.231,0.031
		c-0.479,0.033-1.037,0.325-1.379,0.675c-1.565,1.596-2.958,3.375-4.609,4.871c-13.166,11.922-28.566,16.237-45.713,11.771
		c-19.484-5.076-31.44-18.051-36.154-37.625c-0.523-2.174-0.679-4.437-1.026-6.803c16.215,0,32.114,0,48.054,0
		c0-2.685,0-5.261,0-7.942C669.956,183.265,654.089,183.265,638.088,183.265z M610.981,135.207c0,35.738,0,71.35,0,106.996
		c3.352,0,6.64,0,9.929,0c0-35.708,0-71.317,0-106.996C617.582,135.207,614.324,135.207,610.981,135.207z M607.56,113.985
		c0.001,4.908,3.819,8.706,8.732,8.688c4.79-0.018,8.677-3.876,8.724-8.66c0.047-4.765-3.924-8.737-8.761-8.765
		C611.397,105.222,607.558,109.079,607.56,113.985z"/>
	<path fill-rule="evenodd" clip-rule="evenodd" d="M384.838,17.24c0.024,0.477,0.07,0.955,0.07,1.432
		c0.003,73.671,0.003,147.343,0.003,221.014c0,0.508,0,1.014,0,1.649c-3.264,0-6.373,0.014-9.481-0.029
		c-0.207-0.003-0.514-0.399-0.586-0.664c-0.102-0.372-0.029-0.793-0.029-1.192c0-73.472,0-146.944-0.002-220.415
		c0-0.599-0.036-1.197-0.055-1.795C378.118,17.24,381.478,17.24,384.838,17.24z"/>
	<path fill-rule="evenodd" clip-rule="evenodd" d="M145.798,184.76c0.394-2.349,0.65-4.731,1.203-7.043
		c4.625-19.324,16.268-32.653,34.995-39.13c29.936-10.354,62.053,7.824,69.095,38.68c6.467,28.334-11.289,57.096-39.636,63.562
		c-19.278,4.397-36.258-0.54-50.36-14.437c-8.388-8.266-13.247-18.46-14.834-30.168c-0.139-1.023-0.308-2.042-0.463-3.063
		C145.798,190.36,145.798,187.56,145.798,184.76z M247.747,183.203c-1.247-18.326-17.526-41.409-45.364-43.273
		c-29.709-1.99-53.292,22.049-52.535,50.459c0.734,27.516,24.585,50.422,53.926,47.625c27.456-2.618,44.099-26.083,44.338-46.682
		c-17.049,0-34.099,0-51.259,0c0,2.035,0,3.978,0,5.895c-1.373,0-2.633,0-3.934,0c0-4.705,0-9.323,0-14.024
		C211.237,183.203,229.49,183.203,247.747,183.203z"/>
	<path fill-rule="evenodd" clip-rule="evenodd" d="M600.675,162.054c-7.808,4.328-15.34,8.499-22.869,12.677
		c-7.528,4.177-15.053,8.361-22.708,12.614c32.075,40.945,64.083,81.807,96.201,122.806c-0.437,0.049-0.727,0.107-1.016,0.108
		c-2.28,0.008-4.561-0.037-6.838,0.026c-0.825,0.023-1.307-0.288-1.788-0.902c-18.992-24.268-37.998-48.525-57.002-72.784
		c-11.708-14.946-23.422-29.887-35.112-44.846c-0.532-0.68-0.878-0.87-1.726-0.396c-11.985,6.696-23.992,13.352-36.013,19.985
		c-0.713,0.394-0.91,0.83-0.908,1.597c0.023,9.278,0.015,18.558,0.015,27.836c0,0.468,0,0.935,0,1.463c-2.386,0-4.61,0-6.976,0
		c-0.019-0.419-0.054-0.839-0.054-1.259c-0.003-17.158-0.064-34.316,0.02-51.474c0.054-11.049,2.35-21.536,8.634-30.861
		c8.226-12.206,19.544-19.947,34.074-22.302c19.303-3.129,35.499,2.974,48.33,17.74C597.041,156.5,598.709,159.295,600.675,162.054z
		"/>
	<path fill-rule="evenodd" clip-rule="evenodd" d="M363.841,242.297c-2.179,0-4.292,0.02-6.402-0.029
		c-0.212-0.005-0.499-0.392-0.597-0.658c-0.104-0.282-0.026-0.632-0.026-0.951c0-16.56,0-33.12,0-49.679c0-0.512,0-1.024,0-1.604
		c-29.646,0-59.184,0-88.855,0c0,40.59,0,81.163,0,121.797c-2.429,0-4.723,0-7.089,0c-0.021-0.453-0.053-0.844-0.053-1.234
		c-0.002-39.799-0.003-79.598,0.006-119.396c0-0.575-0.295-1.336,0.712-1.503c0.11-0.018,0.184-0.549,0.191-0.844
		c0.313-12.533,4.484-23.614,12.772-33.018c8.428-9.564,19.016-15.313,31.696-16.982c26.538-3.493,50.822,13.312,56.888,39.438
		c0.797,3.434,1.502,7.077,1.218,10.539c-0.73,8.911-0.182,17.809-0.328,26.708c-0.147,8.957-0.037,17.919-0.042,26.879
		C363.932,241.876,363.894,241.993,363.841,242.297z"/>
	<path fill-rule="evenodd" clip-rule="evenodd" d="M400.983,184.304c16.479,0,32.661,0,48.898,0c0,2.679,0,5.254,0,7.957
		c-16.329,0-32.588,0-48.925,0c0.273,4.369,1.001,8.528,2.469,12.501c6.626,17.933,19.255,29.32,38.08,32.631
		c19.178,3.373,35.108-3.193,47.47-18.263c0.517-0.631,1.015-0.894,1.804-0.857c1.194,0.054,2.392,0.014,3.636,0.014
		c-8.708,14.544-28.832,26.89-51.932,23.52c-26.568-3.876-44.496-25.998-45.66-50.021c-1.335-27.544,17.929-50.038,42.483-54.979
		c24.924-5.016,45.84,8.052,54.773,22.451c-1.552,0-3.016,0.059-4.469-0.041c-0.37-0.025-0.764-0.506-1.048-0.857
		c-7.079-8.74-16.053-14.546-26.982-17.188c-27.121-6.555-54.18,10.735-59.745,38.117
		C401.512,180.883,401.288,182.499,400.983,184.304z"/>
	<path fill-rule="evenodd" clip-rule="evenodd" d="M638.088,183.265c16.001,0,31.868,0,47.813,0c0,2.681,0,5.257,0,7.942
		c-15.94,0-31.839,0-48.054,0c0.347,2.367,0.502,4.629,1.026,6.803c4.713,19.574,16.669,32.549,36.154,37.625
		c17.147,4.466,32.547,0.15,45.713-11.771c1.651-1.496,3.043-3.275,4.609-4.871c0.343-0.35,0.901-0.642,1.379-0.675
		c1.309-0.092,2.628-0.031,4.231-0.031c-4.587,6.571-10.132,11.744-16.825,15.672c-10.102,5.928-21.025,8.305-32.655,7.086
		c-26.344-2.761-45.385-23.975-47.512-48.131c-2.438-27.687,16.096-50.71,40.135-56.603c24.771-6.071,47.303,5.984,57.716,22.943
		c-1.553,0-3.014,0.06-4.465-0.042c-0.363-0.025-0.749-0.523-1.024-0.881c-5.928-7.699-13.343-13.492-22.573-16.557
		c-18.851-6.26-35.864-2.8-50.566,10.632c-8.399,7.675-13.137,17.435-14.89,28.656c-0.019,0.118-0.017,0.239-0.029,0.358
		C638.217,181.974,638.162,182.526,638.088,183.265z"/>
	<path fill-rule="evenodd" clip-rule="evenodd" d="M610.981,135.207c3.343,0,6.601,0,9.929,0c0,35.679,0,71.288,0,106.996
		c-3.289,0-6.578,0-9.929,0C610.981,206.557,610.981,170.945,610.981,135.207z"/>
	<path fill-rule="evenodd" clip-rule="evenodd" d="M607.56,113.985c-0.002-4.906,3.837-8.764,8.695-8.736
		c4.837,0.027,8.808,4,8.761,8.765c-0.047,4.784-3.934,8.642-8.724,8.66C611.378,122.691,607.561,118.894,607.56,113.985z"/>
	<path fill-rule="evenodd" clip-rule="evenodd" fill="none" d="M247.747,183.203c-18.257,0-36.51,0-54.827,0
		c0,4.702,0,9.32,0,14.024c1.3,0,2.561,0,3.934,0c0-1.917,0-3.86,0-5.895c17.16,0,34.209,0,51.259,0
		c-0.239,20.599-16.882,44.064-44.338,46.682c-29.341,2.797-53.192-20.109-53.926-47.625c-0.758-28.41,22.825-52.449,52.535-50.459
		C230.221,141.794,246.5,164.877,247.747,183.203z"/>
</g>
<g>
</g>
<g>
</g>
<g>
</g>
<g>
</g>
<g>
</g>
<g>
</g>
</svg>
