<?xml version="1.0" encoding="utf-8"?>
<!-- Generator: Adobe Illustrator 16.0.0, SVG Export Plug-In . SVG Version: 6.00 Build 0)  -->
<!DOCTYPE svg PUBLIC "-//W3C//DTD SVG 1.1//EN" "http://www.w3.org/Graphics/SVG/1.1/DTD/svg11.dtd">
<svg version="1.1" id="Calque_1" xmlns="http://www.w3.org/2000/svg" xmlns:xlink="http://www.w3.org/1999/xlink" x="0px" y="0px"
	 width="841.89px" height="334.899px" viewBox="0 0 841.89 334.899" enable-background="new 0 0 841.89 334.899"
	 xml:space="preserve">
<g>
	<path fill-rule="evenodd" clip-rule="evenodd" fill="none" d="M59.038,177c0-55.52,0-111.04,0-166.56c76.64,0,153.28,0,229.92,0
		c-0.049,1.115-0.142,2.229-0.142,3.344c-0.007,72.315-0.006,144.63-0.006,216.944c0,0.721-0.031,1.442,0.014,2.159
		c0.033,0.525,0.167,1.044,0.25,1.537c3.328,0,6.489,0,9.901,0c0-1.161,0-2.183,0-3.203c0-72.555,0-145.11,0.002-217.665
		c0-1.039,0.04-2.078,0.061-3.117c164.16,0,328.32,0,492.48,0c0,117.44,0,234.88,0,352.32c-244.16,0-488.32,0-732.48,0
		c0-58.399,0-116.8,0-175.2c0.308,0.975,0.673,1.936,0.908,2.927c0.312,1.319,0.463,2.677,0.784,3.994
		c7.077,29.001,35.405,46.401,64.474,39.613c27.899-6.515,45.754-35.131,39.658-63.081c-5.954-27.298-32.734-46.83-62.544-41.093
		c-20.886,4.019-37.739,20.681-41.906,41.542C60.04,173.326,59.5,175.155,59.038,177z M462.354,184.113
		c0.656,0.811,1.215,1.482,1.754,2.169c29.289,37.387,58.575,74.778,87.872,112.16c1.325,1.691,2.449,3.93,4.213,4.777
		c1.77,0.849,4.223,0.29,6.376,0.31c0.643,0.006,1.285-0.12,2.334-0.228c-32.218-41.131-64.129-81.869-96.142-122.738
		c15.288-8.489,30.279-16.813,45.326-25.167c-0.467-0.845-0.789-1.479-1.156-2.087c-11.312-18.697-33.585-28.19-54.922-23.412
		c-20.529,4.597-35.899,20.661-39.553,41.239c-0.817,4.603-0.775,9.22-0.763,13.859c0.044,15.835,0.017,31.672,0.017,47.507
		c0,0.934,0,1.866,0,2.899c2.517,0,4.713,0,7.159,0c0-10.243,0-20.358,0-30.493C437.467,197.92,449.881,191.033,462.354,184.113z
		 M277.925,235.438c0-1.128,0-2.066,0-3.006c0-15.997-0.053-31.994,0.033-47.991c0.025-4.659-0.175-9.261-1.229-13.808
		c-5.86-25.287-30.126-42.854-56.774-39.279c-12.641,1.696-23.151,7.368-31.704,16.764c-9.48,10.416-13.311,23.09-13.406,36.74
		c-0.27,39.03-0.096,78.064-0.09,117.097c0,0.778,0.064,1.558,0.103,2.421c2.414,0,4.668,0,7.134,0c0-40.645,0-81.086,0-121.617
		c29.668,0,59.121,0,88.834,0c0,17.646,0,35.115,0,52.679C273.226,235.438,275.366,235.438,277.925,235.438z M407.579,152.376
		c-10.574-16.915-34.203-28.473-58.84-21.362c-23.625,6.819-41.119,29.719-38.077,57.3c2.727,24.724,22.444,44.953,48.842,47.112
		c12.696,1.038,24.39-2.23,34.866-9.563c6.095-4.266,12.506-11.185,13.322-14.25c-4.214-0.296-4.139-0.229-6.867,2.794
		c-12.383,13.723-27.892,19.477-45.971,16.12c-19.387-3.6-32.126-15.507-38.312-34.263c-1.116-3.385-1.833-6.893-1.779-10.79
		c16.417,0,32.688,0,49.022,0c0-2.796,0-5.312,0-8.065c-16.346,0-32.545,0-49.07,0c0.305-1.987,0.481-3.713,0.841-5.4
		c5.05-23.659,27.081-41.654,53.989-38.608c12.48,1.413,22.97,7.085,31.18,16.629c1.646,1.914,3.254,2.845,5.674,2.46
		C406.708,152.444,407.02,152.431,407.579,152.376z M644.333,211.699c-2.92-0.465-4.969-0.123-7.101,2.229
		c-12.086,13.33-27.349,18.752-44.974,15.695c-17.94-3.111-30.413-13.704-37.415-30.569c-1.875-4.518-2.877-9.258-3.21-14.476
		c3.315,0,6.491,0,9.666,0c3.2,0,6.399,0,9.599,0c3.279,0,6.559,0,9.838,0c3.199,0,6.398,0.007,9.598-0.001
		c3.166-0.009,6.332-0.035,9.46-0.054c0-2.864,0-5.383,0-8.146c-16.043,0-31.918,0-47.779,0
		c-0.541-15.545,13.676-34.371,30.849-41.008c19.473-7.526,43.223-2.405,57.834,17.125c0.693,0,1.489,0.017,2.284-0.005
		c0.736-0.021,1.473-0.083,2.346-0.135c-10.644-17.208-32.607-28.443-56.4-23.156c-23.809,5.292-40.778,25.835-41.595,50.274
		c-0.818,24.521,14.762,45.545,37.273,52.647C608.192,239.562,632.198,229.627,644.333,211.699z M524.701,128.498
		c0,1.092-0.001,1.879,0,2.667c0.036,34.631,0.072,69.263,0.114,103.894c0,0.062,0.094,0.123,0.146,0.182s0.11,0.113,0.137,0.141
		c3.201,0,6.369,0,9.596,0c0-35.695,0-71.239,0-106.884C531.355,128.498,528.188,128.498,524.701,128.498z M683.872,306.058
		c0-10.68,0-21.104,0-31.545c-1.265,0-2.351,0-3.682,0c0,1.938,0,3.757,0,5.576c0,1.789,0,3.578,0,5.695
		c-0.624-0.429-0.88-0.588-1.118-0.771c-4.277-3.281-11.637-2.153-13.889,4.365c-1.102,3.188-1.265,6.417-0.466,9.668
		c1.865,7.587,8.876,10,15.125,5.251c0.095-0.072,0.294-0.009,0.515-0.009c0.14,0.57,0.283,1.159,0.432,1.769
		C681.834,306.058,682.778,306.058,683.872,306.058z M609.434,288.649c-4.834,0-9.444,0-14.173,0c0-3.387,0-6.541,0-9.954
		c5.356,0,10.593,0,15.95,0c0-1.389,0-2.517,0-3.646c-6.801,0-13.409,0-20.108,0c0,10.393,0,20.658,0,30.907
		c1.398,0,2.632,0,4.121,0c0-4.521,0-8.877,0-13.443c4.869,0,9.479,0,14.21,0C609.434,291.213,609.434,290.133,609.434,288.649z
		 M710.791,303.367c-2.112-0.631-2.138-0.631-2.158-2.591c-0.037-3.518,0.021-7.038-0.077-10.554
		c-0.08-2.897-1.479-5.058-4.196-6.15c-3.288-1.322-6.598-1.161-9.717,0.517c-2.166,1.165-3.309,3.065-3.3,5.719
		c0.598,0.056,1.065,0.131,1.533,0.134c0.631,0.004,1.263-0.048,1.839-0.073c1.675-3.518,4.355-4.765,7.52-3.58
		c2.26,0.846,2.919,2.523,2.102,5.649c-1.529,0.087-3.121,0.132-4.704,0.28c-1.506,0.141-3.051,0.213-4.491,0.624
		c-3.476,0.991-5.354,3.995-4.9,7.518c0.396,3.087,3.077,5.438,6.438,5.756c3.172,0.3,5.93-0.563,8.182-2.891
		c1.719,3.021,3.123,3.451,5.932,1.931C710.791,304.972,710.791,304.26,710.791,303.367z M521.134,107.285
		c0.045,4.823,3.906,8.683,8.698,8.693c4.872,0.011,8.807-3.987,8.76-8.901c-0.046-4.769-3.986-8.8-8.73-8.689
		C524.333,98.517,520.925,102.885,521.134,107.285z M634.241,294.806c-0.304-1.574-0.471-3.422-1.031-5.142
		c-1.312-4.021-4.86-6.437-9.128-6.45c-4.251-0.014-7.815,2.414-9.184,6.397c-1.174,3.419-1.207,6.909-0.125,10.357
		c1.417,4.519,4.822,6.771,9.864,6.646c4.322-0.105,7.736-2.771,8.852-7.053C633.868,298.109,633.97,296.583,634.241,294.806z
		 M743.371,294.957c0.223,1.486,0.326,3.093,0.719,4.626c1.066,4.168,4.474,6.882,8.624,7.027c5.085,0.179,8.544-2.011,10.024-6.434
		c1.067-3.189,1.102-6.459,0.223-9.679c-1.281-4.694-4.635-7.156-9.497-7.257c-4.713-0.099-8.399,2.925-9.473,7.579
		C743.689,292.134,743.585,293.492,743.371,294.957z M644.206,306.002c0-0.922,0-1.703,0-2.483c0.001-3.037-0.032-6.075,0.015-9.112
		c0.033-2.103,0.371-4.13,1.827-5.815c1.487-1.722,3.389-2.071,5.441-1.549c1.955,0.498,2.769,2.023,2.921,3.941
		c0.07,0.875,0.147,1.752,0.152,2.629c0.017,3.517-0.002,7.033,0.017,10.551c0.003,0.608,0.118,1.216,0.176,1.775
		c1.316,0,2.46,0,3.714,0c0-5.056,0.007-9.922-0.01-14.788c-0.001-0.555-0.136-1.107-0.204-1.662
		c-0.622-5.013-5.108-6.923-8.905-6.018c-1.846,0.44-3.54,1.512-5.388,2.336c-0.107-0.492-0.255-1.167-0.402-1.84
		c-1.096,0-2.092,0-3.131,0c0,7.425,0,14.667,0,22.035C641.633,306.002,642.725,306.002,644.206,306.002z M773.694,306.03
		c0-1.074-0.002-1.864,0-2.655c0.007-3.119-0.091-6.244,0.068-9.355c0.075-1.476,0.4-3.043,1.037-4.362
		c1.15-2.381,3.625-3.326,6.071-2.669c2.004,0.538,2.996,2.077,3.02,4.87c0.034,3.999,0.004,7.999,0.017,11.998
		c0.002,0.696,0.082,1.393,0.13,2.157c0.701,0.045,1.249,0.116,1.795,0.104c0.611-0.013,1.222-0.101,1.994-0.17
		c0-2.29,0.008-4.438-0.002-6.588c-0.015-3.118,0.054-6.242-0.096-9.354c-0.136-2.842-1.419-5.084-4.213-6.135
		c-3.064-1.153-5.961-0.755-8.599,1.229c-0.43,0.323-0.823,0.694-1.377,1.166c-0.218-0.916-0.39-1.634-0.558-2.339
		c-1.09,0-2.018,0-3.037,0c0,7.443,0,14.743,0,22.103C771.216,306.03,772.308,306.03,773.694,306.03z M727.653,283.716
		c-2.194,0-4.153,0-6.317,0c0-2.235,0-4.206,0-6.495c-1.473,0.363-2.663,0.657-4.069,1.004c0,1.874,0,3.595,0,5.39
		c-1.5,0.117-2.741,0.214-4.072,0.318c0,1.116,0,2.092,0,3.154c1.418,0.104,2.658,0.196,4.124,0.304
		c0,3.094-0.016,6.032,0.007,8.971c0.013,1.755-0.038,3.523,0.161,5.261c0.315,2.754,1.636,4.082,4.342,4.703
		c2.09,0.48,4.083,0.068,6.062-0.529c0-1.109,0-2.081,0-2.976c-1.316,0-2.43,0.011-3.544-0.003
		c-2.358-0.027-2.977-0.599-3.007-3.002c-0.045-3.596-0.021-7.191-0.005-10.787c0.002-0.534,0.117-1.068,0.207-1.838
		c2.067,0,4.032,0,6.112,0C727.653,286.008,727.653,285.077,727.653,283.716z M733.509,283.935c0,7.447,0,14.741,0,22.025
		c1.324,0,2.473,0,3.654,0c0-7.404,0-14.64,0-22.025C735.89,283.935,734.737,283.935,733.509,283.935z M737.411,274.548
		c-1.489,0-2.864,0-4.269,0c0,1.477,0,2.786,0,4.171c1.476,0,2.8,0,4.269,0C737.411,277.289,737.411,275.975,737.411,274.548z"/>
	<path fill-rule="evenodd" clip-rule="evenodd" d="M299.038,10.44c-0.021,1.039-0.061,2.078-0.061,3.117
		c-0.003,72.555-0.002,145.11-0.002,217.665c0,1.021,0,2.042,0,3.203c-3.413,0-6.574,0-9.901,0c-0.083-0.493-0.217-1.012-0.25-1.537
		c-0.044-0.717-0.014-1.438-0.014-2.159c0-72.314,0-144.629,0.006-216.944c0-1.115,0.093-2.229,0.142-3.344
		C292.317,10.44,295.678,10.44,299.038,10.44z"/>
	<path fill-rule="evenodd" clip-rule="evenodd" d="M59.038,177c0.462-1.845,1.002-3.674,1.374-5.537
		c4.167-20.861,21.02-37.523,41.906-41.542c29.811-5.737,56.591,13.795,62.544,41.093c6.096,27.95-11.759,56.566-39.658,63.081
		c-29.068,6.788-57.397-10.612-64.474-39.613c-0.321-1.317-0.472-2.675-0.784-3.994c-0.235-0.992-0.601-1.953-0.908-2.927
		C59.038,184.04,59.038,180.52,59.038,177z M161.182,176.42c-0.837-17.729-17.704-43.229-48.474-43.343
		c-28.411-0.105-50.334,23.43-49.184,51.193c1.152,27.81,25.124,49.875,54.439,46.859c14.035-1.444,25.437-8.101,33.997-19.366
		c6.04-7.95,9.261-16.956,9.801-27.04c-17.063,0-33.819,0-50.83,0c0,1.936,0,3.738,0,5.64c-1.481,0-2.706,0-4.025,0
		c0-4.676,0-9.199,0-13.943C125.092,176.42,143.132,176.42,161.182,176.42z"/>
	<path fill-rule="evenodd" clip-rule="evenodd" d="M462.354,184.113c-12.474,6.92-24.888,13.807-37.484,20.795
		c0,10.135,0,20.25,0,30.493c-2.446,0-4.643,0-7.159,0c0-1.033,0-1.966,0-2.899c0-15.835,0.027-31.671-0.017-47.507
		c-0.013-4.639-0.055-9.256,0.763-13.859c3.653-20.579,19.023-36.642,39.553-41.239c21.337-4.778,43.61,4.715,54.922,23.412
		c0.367,0.607,0.689,1.242,1.156,2.087c-15.047,8.354-30.038,16.678-45.326,25.167c32.013,40.869,63.924,81.607,96.142,122.738
		c-1.049,0.107-1.691,0.233-2.334,0.228c-2.153-0.02-4.606,0.539-6.376-0.31c-1.764-0.848-2.888-3.086-4.213-4.777
		c-29.297-37.382-58.583-74.772-87.872-112.16C463.569,185.596,463.011,184.924,462.354,184.113z"/>
	<path fill-rule="evenodd" clip-rule="evenodd" d="M277.925,235.438c-2.559,0-4.699,0-7.1,0c0-17.563,0-35.033,0-52.679
		c-29.713,0-59.167,0-88.834,0c0,40.531,0,80.973,0,121.617c-2.465,0-4.72,0-7.134,0c-0.038-0.863-0.103-1.643-0.103-2.421
		c-0.005-39.032-0.18-78.066,0.09-117.097c0.095-13.65,3.925-26.325,13.406-36.74c8.553-9.396,19.063-15.068,31.704-16.764
		c26.648-3.576,50.914,13.992,56.774,39.279c1.054,4.547,1.253,9.149,1.229,13.808c-0.085,15.997-0.033,31.994-0.033,47.991
		C277.925,233.371,277.925,234.31,277.925,235.438z"/>
	<path fill-rule="evenodd" clip-rule="evenodd" d="M407.579,152.376c-0.559,0.054-0.871,0.067-1.178,0.116
		c-2.42,0.385-4.028-0.546-5.674-2.46c-8.21-9.544-18.7-15.216-31.18-16.629c-26.908-3.046-48.939,14.949-53.989,38.608
		c-0.36,1.687-0.536,3.413-0.841,5.4c16.525,0,32.724,0,49.07,0c0,2.753,0,5.269,0,8.065c-16.334,0-32.605,0-49.022,0
		c-0.054,3.897,0.663,7.404,1.779,10.79c6.186,18.756,18.924,30.663,38.312,34.263c18.08,3.356,33.588-2.397,45.971-16.12
		c2.728-3.022,2.652-3.09,6.867-2.794c-0.816,3.065-7.228,9.984-13.322,14.25c-10.477,7.332-22.17,10.601-34.866,9.563
		c-26.398-2.159-46.116-22.388-48.842-47.112c-3.042-27.582,14.453-50.481,38.077-57.3
		C373.376,123.904,397.004,135.462,407.579,152.376z"/>
	<path fill-rule="evenodd" clip-rule="evenodd" d="M644.333,211.699c-12.135,17.928-36.141,27.862-59.728,20.421
		c-22.512-7.103-38.092-28.126-37.273-52.647c0.816-24.439,17.786-44.982,41.595-50.274c23.793-5.288,45.757,5.948,56.4,23.156
		c-0.873,0.052-1.609,0.114-2.346,0.135c-0.795,0.022-1.591,0.005-2.284,0.005c-14.611-19.531-38.361-24.652-57.834-17.125
		c-17.173,6.637-31.39,25.463-30.849,41.008c15.861,0,31.736,0,47.779,0c0,2.762,0,5.281,0,8.146
		c-3.128,0.019-6.294,0.044-9.46,0.054c-3.199,0.009-6.398,0.001-9.598,0.001c-3.279,0-6.559,0-9.838,0c-3.199,0-6.398,0-9.599,0
		c-3.175,0-6.351,0-9.666,0c0.333,5.218,1.335,9.958,3.21,14.476c7.002,16.865,19.475,27.458,37.415,30.569
		c17.625,3.057,32.888-2.365,44.974-15.695C639.364,211.576,641.413,211.234,644.333,211.699z"/>
	<path fill-rule="evenodd" clip-rule="evenodd" d="M524.701,128.498c3.487,0,6.654,0,9.993,0c0,35.645,0,71.188,0,106.884
		c-3.227,0-6.395,0-9.596,0c-0.026-0.027-0.084-0.082-0.137-0.141s-0.146-0.12-0.146-0.182
		c-0.042-34.631-0.078-69.263-0.114-103.894C524.7,130.377,524.701,129.59,524.701,128.498z"/>
	<path fill-rule="evenodd" clip-rule="evenodd" d="M683.872,306.058c-1.094,0-2.038,0-3.083,0c-0.148-0.609-0.292-1.198-0.432-1.769
		c-0.221,0-0.42-0.063-0.515,0.009c-6.249,4.749-13.26,2.336-15.125-5.251c-0.799-3.251-0.636-6.479,0.466-9.668
		c2.252-6.519,9.611-7.646,13.889-4.365c0.238,0.183,0.494,0.342,1.118,0.771c0-2.117,0-3.906,0-5.695c0-1.819,0-3.639,0-5.576
		c1.331,0,2.417,0,3.682,0C683.872,284.954,683.872,295.378,683.872,306.058z M680.668,294.866c-0.506-1.804-0.782-3.65-1.54-5.271
		c-0.945-2.02-2.771-3.092-5.065-2.975c-2.367,0.121-4.096,1.306-4.951,3.551c-1.216,3.187-1.239,6.418-0.008,9.6
		c0.854,2.206,2.469,3.436,4.92,3.545c2.452,0.108,4.258-0.976,5.201-3.103C679.95,298.576,680.188,296.723,680.668,294.866z"/>
	<path fill-rule="evenodd" clip-rule="evenodd" d="M609.434,288.649c0,1.483,0,2.563,0,3.864c-4.731,0-9.341,0-14.21,0
		c0,4.566,0,8.922,0,13.443c-1.489,0-2.723,0-4.121,0c0-10.249,0-20.515,0-30.907c6.699,0,13.308,0,20.108,0
		c0,1.129,0,2.257,0,3.646c-5.357,0-10.594,0-15.95,0c0,3.413,0,6.567,0,9.954C599.989,288.649,604.6,288.649,609.434,288.649z"/>
	<path fill-rule="evenodd" clip-rule="evenodd" d="M710.791,303.367c0,0.893,0,1.604,0,2.288c-2.809,1.521-4.213,1.091-5.932-1.931
		c-2.252,2.327-5.01,3.19-8.182,2.891c-3.36-0.317-6.041-2.669-6.438-5.756c-0.453-3.522,1.425-6.526,4.9-7.518
		c1.44-0.411,2.985-0.483,4.491-0.624c1.583-0.148,3.175-0.193,4.704-0.28c0.817-3.126,0.158-4.804-2.102-5.649
		c-3.164-1.185-5.845,0.063-7.52,3.58c-0.576,0.025-1.208,0.077-1.839,0.073c-0.468-0.003-0.936-0.078-1.533-0.134
		c-0.009-2.653,1.134-4.554,3.3-5.719c3.119-1.678,6.429-1.839,9.717-0.517c2.717,1.093,4.116,3.253,4.196,6.15
		c0.098,3.516,0.04,7.036,0.077,10.554C708.653,302.736,708.679,302.736,710.791,303.367z M705.031,295.39
		c-2.991,0.277-5.36,0.438-7.709,0.751c-0.664,0.089-1.348,0.524-1.885,0.969c-2.099,1.738-1.468,5.079,1.096,6.01
		c2.812,1.021,6.284-0.32,7.473-3.095C704.549,298.759,704.629,297.295,705.031,295.39z"/>
	<path fill-rule="evenodd" clip-rule="evenodd" d="M521.134,107.285c-0.209-4.4,3.199-8.768,8.728-8.897
		c4.744-0.111,8.685,3.921,8.73,8.689c0.047,4.914-3.888,8.912-8.76,8.901C525.04,115.968,521.179,112.108,521.134,107.285z"/>
	<path fill-rule="evenodd" clip-rule="evenodd" d="M634.241,294.806c-0.271,1.777-0.373,3.304-0.752,4.757
		c-1.115,4.282-4.529,6.947-8.852,7.053c-5.042,0.124-8.447-2.128-9.864-6.646c-1.082-3.448-1.049-6.938,0.125-10.357
		c1.368-3.983,4.933-6.411,9.184-6.397c4.268,0.014,7.816,2.429,9.128,6.45C633.771,291.384,633.938,293.231,634.241,294.806z
		 M617.906,295.043c0.356,1.65,0.533,3.333,1.095,4.874c0.854,2.341,2.722,3.412,5.219,3.378c2.43-0.033,4.139-1.229,4.963-3.435
		c1.211-3.24,1.204-6.566-0.026-9.812c-0.853-2.248-2.654-3.318-5.011-3.408c-2.38-0.09-4.364,1.152-5.182,3.48
		C618.419,291.672,618.254,293.355,617.906,295.043z"/>
	<path fill-rule="evenodd" clip-rule="evenodd" d="M743.371,294.957c0.214-1.465,0.318-2.823,0.62-4.137
		c1.073-4.654,4.76-7.678,9.473-7.579c4.862,0.101,8.216,2.563,9.497,7.257c0.879,3.22,0.845,6.489-0.223,9.679
		c-1.48,4.423-4.939,6.612-10.024,6.434c-4.15-0.146-7.558-2.859-8.624-7.027C743.697,298.05,743.594,296.443,743.371,294.957z
		 M759.646,294.896c-0.338-1.594-0.53-3.266-1.063-4.822c-0.782-2.283-2.62-3.334-4.974-3.433c-2.37-0.099-4.346,1.163-5.215,3.456
		c-1.199,3.163-1.217,6.404-0.07,9.586c0.894,2.479,2.729,3.646,5.316,3.608c2.391-0.035,4.28-1.275,5.057-3.633
		C759.188,298.17,759.328,296.565,759.646,294.896z"/>
	<path fill-rule="evenodd" clip-rule="evenodd" d="M644.206,306.002c-1.481,0-2.573,0-3.777,0c0-7.368,0-14.61,0-22.035
		c1.039,0,2.035,0,3.131,0c0.147,0.673,0.295,1.348,0.402,1.84c1.848-0.824,3.542-1.896,5.388-2.336
		c3.797-0.905,8.283,1.005,8.905,6.018c0.068,0.555,0.203,1.107,0.204,1.662c0.017,4.866,0.01,9.732,0.01,14.788
		c-1.254,0-2.397,0-3.714,0c-0.058-0.56-0.173-1.167-0.176-1.775c-0.019-3.518,0-7.034-0.017-10.551
		c-0.005-0.877-0.082-1.754-0.152-2.629c-0.152-1.918-0.966-3.443-2.921-3.941c-2.053-0.522-3.954-0.173-5.441,1.549
		c-1.456,1.686-1.794,3.713-1.827,5.815c-0.047,3.037-0.014,6.075-0.015,9.112C644.206,304.299,644.206,305.08,644.206,306.002z"/>
	<path fill-rule="evenodd" clip-rule="evenodd" d="M773.694,306.03c-1.387,0-2.479,0-3.749,0c0-7.359,0-14.659,0-22.103
		c1.02,0,1.947,0,3.037,0c0.168,0.705,0.34,1.423,0.558,2.339c0.554-0.472,0.947-0.843,1.377-1.166
		c2.638-1.984,5.534-2.383,8.599-1.229c2.794,1.051,4.077,3.293,4.213,6.135c0.149,3.112,0.081,6.236,0.096,9.354
		c0.01,2.149,0.002,4.298,0.002,6.588c-0.772,0.069-1.383,0.157-1.994,0.17c-0.546,0.012-1.094-0.06-1.795-0.104
		c-0.048-0.765-0.128-1.461-0.13-2.157c-0.013-3.999,0.018-7.999-0.017-11.998c-0.023-2.793-1.016-4.332-3.02-4.87
		c-2.446-0.657-4.921,0.288-6.071,2.669c-0.637,1.319-0.962,2.887-1.037,4.362c-0.159,3.111-0.062,6.236-0.068,9.355
		C773.692,304.166,773.694,304.956,773.694,306.03z"/>
	<path fill-rule="evenodd" clip-rule="evenodd" d="M727.653,283.716c0,1.361,0,2.292,0,3.475c-2.08,0-4.045,0-6.112,0
		c-0.09,0.77-0.205,1.304-0.207,1.838c-0.016,3.596-0.04,7.191,0.005,10.787c0.03,2.403,0.648,2.975,3.007,3.002
		c1.114,0.014,2.228,0.003,3.544,0.003c0,0.895,0,1.866,0,2.976c-1.979,0.598-3.972,1.01-6.062,0.529
		c-2.706-0.621-4.026-1.949-4.342-4.703c-0.199-1.737-0.148-3.506-0.161-5.261c-0.022-2.938-0.007-5.877-0.007-8.971
		c-1.466-0.107-2.706-0.199-4.124-0.304c0-1.063,0-2.038,0-3.154c1.331-0.104,2.572-0.201,4.072-0.318c0-1.795,0-3.516,0-5.39
		c1.406-0.347,2.597-0.641,4.069-1.004c0,2.289,0,4.26,0,6.495C723.5,283.716,725.459,283.716,727.653,283.716z"/>
	<path fill-rule="evenodd" clip-rule="evenodd" d="M733.509,283.935c1.229,0,2.381,0,3.654,0c0,7.386,0,14.621,0,22.025
		c-1.182,0-2.33,0-3.654,0C733.509,298.676,733.509,291.382,733.509,283.935z"/>
	<path fill-rule="evenodd" clip-rule="evenodd" d="M737.411,274.548c0,1.427,0,2.741,0,4.171c-1.469,0-2.793,0-4.269,0
		c0-1.385,0-2.694,0-4.171C734.547,274.548,735.922,274.548,737.411,274.548z"/>
	<path fill-rule="evenodd" clip-rule="evenodd" fill="none" d="M161.182,176.42c-18.049,0-36.09,0-54.276,0
		c0,4.744,0,9.267,0,13.943c1.319,0,2.543,0,4.025,0c0-1.902,0-3.705,0-5.64c17.011,0,33.767,0,50.83,0
		c-0.54,10.083-3.761,19.09-9.801,27.04c-8.56,11.266-19.961,17.922-33.997,19.366c-29.315,3.016-53.287-19.049-54.439-46.859
		c-1.151-27.763,20.772-51.298,49.184-51.193C143.478,133.192,160.344,158.691,161.182,176.42z"/>
	<path fill-rule="evenodd" clip-rule="evenodd" fill="none" d="M680.668,294.866c-0.48,1.856-0.718,3.71-1.443,5.347
		c-0.943,2.127-2.749,3.211-5.201,3.103c-2.451-0.109-4.066-1.339-4.92-3.545c-1.231-3.182-1.208-6.413,0.008-9.6
		c0.855-2.245,2.584-3.43,4.951-3.551c2.295-0.117,4.12,0.955,5.065,2.975C679.886,291.216,680.162,293.063,680.668,294.866z"/>
	<path fill-rule="evenodd" clip-rule="evenodd" fill="none" d="M705.031,295.39c-0.402,1.905-0.482,3.369-1.025,4.635
		c-1.188,2.774-4.661,4.115-7.473,3.095c-2.563-0.931-3.194-4.271-1.096-6.01c0.537-0.444,1.221-0.88,1.885-0.969
		C699.671,295.827,702.04,295.667,705.031,295.39z"/>
	<path fill-rule="evenodd" clip-rule="evenodd" fill="none" d="M617.906,295.043c0.348-1.688,0.513-3.371,1.058-4.922
		c0.817-2.328,2.802-3.57,5.182-3.48c2.356,0.09,4.158,1.16,5.011,3.408c1.23,3.245,1.237,6.571,0.026,9.812
		c-0.824,2.206-2.533,3.401-4.963,3.435c-2.497,0.034-4.365-1.037-5.219-3.378C618.439,298.376,618.263,296.693,617.906,295.043z"/>
	<path fill-rule="evenodd" clip-rule="evenodd" fill="none" d="M759.646,294.896c-0.318,1.669-0.458,3.273-0.948,4.763
		c-0.776,2.357-2.666,3.598-5.057,3.633c-2.588,0.037-4.423-1.129-5.316-3.608c-1.146-3.182-1.129-6.423,0.07-9.586
		c0.869-2.293,2.845-3.555,5.215-3.456c2.354,0.099,4.191,1.149,4.974,3.433C759.116,291.631,759.309,293.303,759.646,294.896z"/>
</g>
<g>
</g>
<g>
</g>
<g>
</g>
<g>
</g>
<g>
</g>
<g>
</g>
</svg>
