<?xml version="1.0" encoding="utf-8"?>
<!-- Generator: Adobe Illustrator 16.0.0, SVG Export Plug-In . SVG Version: 6.00 Build 0)  -->
<!DOCTYPE svg PUBLIC "-//W3C//DTD SVG 1.1//EN" "http://www.w3.org/Graphics/SVG/1.1/DTD/svg11.dtd">
<svg version="1.1" id="Calque_1" xmlns="http://www.w3.org/2000/svg" xmlns:xlink="http://www.w3.org/1999/xlink" x="0px" y="0px"
	 width="734.5px" height="240px" viewBox="0 0 734.5 240" enable-background="new 0 0 734.5 240" xml:space="preserve">
<g>
	<path fill-rule="evenodd" clip-rule="evenodd" fill="none" d="M129.798,105.74c0-51.996,0-103.992,0-155.994
		c145.343,0,290.687,0,436.056,0c0,95.969,0,191.945,0,287.957c-145.336,0-290.696,0-436.056,0c0-41.17,0-82.366,0-123.563
		c0.346,2.243,0.591,4.507,1.054,6.726c5.771,27.639,32.141,46.111,59.936,41.925c12.93-1.947,23.751-7.896,32.42-17.694
		c1.437-1.623,2.701-3.398,4.236-5.347c-1.787,0-3.185-0.052-4.573,0.033c-0.395,0.024-0.854,0.372-1.133,0.7
		c-13.386,15.812-30.268,21.88-50.464,17.271c-24.308-5.547-40.439-29.597-36.983-54.267c1.643-11.726,6.658-21.77,15.476-29.619
		c14.489-12.898,31.21-16.245,49.613-10.244c9.48,3.092,17.115,9,23.131,16.971c0.32,0.424,0.744,1.032,1.164,1.07
		c1.437,0.134,2.895,0.051,4.379,0.051c-0.054-0.256-0.054-0.34-0.089-0.406c-0.093-0.176-0.192-0.351-0.305-0.515
		c-9.889-14.451-23.544-22.565-41.003-23.933c-10.176-0.797-19.904,1.248-28.857,6.231c-14.584,8.118-23.663,20.377-27.042,36.772
		C130.357,101.808,130.113,103.781,129.798,105.74z M341.734,166.713c0.025-0.381,0.054-0.617,0.055-0.854
		c0.002-9.919,0.002-19.839,0.002-29.758c0-4.239-0.139-8.485,0.04-12.717c0.174-4.136-0.378-8.25,0.441-12.436
		c0.529-2.706-0.166-5.727-0.663-8.545c-1.921-10.902-6.799-20.327-14.809-27.988c-12.322-11.786-27.107-16.626-43.869-13.87
		c-18.367,3.021-31.322,13.587-39.036,30.508c-2.485,5.451-4.082,11.27-4.103,17.213c-0.141,40.676-0.074,81.353-0.074,122.029
		c0,0.461,0,0.923,0,1.361c2.435,0,4.695,0,7.059,0c0-39.983,0-79.886,0-119.854c29.357,0,58.61,0,88.018,0
		c0,18.337,0,36.623,0,54.909C337.177,166.713,339.405,166.713,341.734,166.713z M360.752,231.697c0-0.654,0-1.206,0-1.759
		c0-38.038,0-76.076,0-114.114c0-0.359,0.033-0.724-0.007-1.079c-0.089-0.79,0.241-1.025,1.022-1.024
		c15.359,0.019,30.719,0.019,46.078-0.001c0.786-0.001,0.996,0.293,1.091,1.027c0.349,2.726,0.597,5.48,1.2,8.153
		c6.141,27.193,32.311,45.069,59.879,40.849c13.373-2.047,24.4-8.401,33.125-18.734c1.086-1.287,2.046-2.681,3.223-4.233
		c-1.371,0-2.412,0.082-3.434-0.021c-1.2-0.12-1.937,0.339-2.687,1.277c-13.63,17.041-37.631,23.063-57.571,14.194
		c-16.116-7.168-25.774-19.652-29.146-36.965c-0.346-1.774-0.436-3.599-0.662-5.553c16.44,0,32.618,0,48.86,0
		c0-2.704,0-5.279,0-7.989c-16.203,0-32.34,0-48.584,0c0.145-1.132,0.225-2.126,0.402-3.102
		c1.922-10.535,6.588-19.672,14.397-27.009c12.258-11.517,26.811-15.892,43.369-12.887c12.251,2.224,22.137,8.552,29.807,18.351
		c0.188,0.241,0.449,0.592,0.686,0.601c1.522,0.055,3.047,0.028,4.688,0.028C498.412,68.907,480.59,55.662,456.646,58
		c-9.545,0.933-18.246,4.228-25.949,9.935c-12.702,9.41-19.842,22.102-21.735,37.723c-15.77,0-31.427,0-47.097,0
		c0-0.282-0.006-0.481,0.002-0.68c0.006-0.159,0.018-0.32,0.045-0.477c2.072-11.972,7.724-21.885,17.164-29.56
		c7.786-6.329,16.722-9.806,26.74-10.534c0.762-0.055,1.619-0.393,2.22-0.868C425.375,49.826,442.686,36.079,460,22.335
		c1.422-1.128,2.835-2.267,4.367-3.494c-0.305-0.094-0.408-0.154-0.512-0.154c-3.359-0.006-6.72-0.031-10.078,0.019
		c-0.461,0.006-0.984,0.295-1.365,0.597c-7.244,5.726-14.472,11.474-21.703,17.216c-8.483,6.737-16.965,13.477-25.462,20.196
		c-0.448,0.354-1.014,0.649-1.567,0.762c-1.169,0.239-2.373,0.302-3.551,0.503c-14.492,2.467-26.157,9.629-35.014,21.313
		c-6.148,8.112-9.558,17.335-10.658,27.438c-0.086,0.797-0.705,1.56-0.706,2.338c-0.036,40.438-0.032,80.877-0.032,121.315
		c0,0.424,0,0.849,0,1.313C356.098,231.697,358.326,231.697,360.752,231.697z"/>
	<path fill-rule="evenodd" clip-rule="evenodd" d="M129.798,105.74c0.315-1.959,0.56-3.933,0.959-5.874
		c3.379-16.395,12.458-28.655,27.042-36.772c8.953-4.983,18.682-7.028,28.857-6.231c17.459,1.367,31.114,9.481,41.003,23.933
		c0.112,0.165,0.212,0.339,0.305,0.515c0.035,0.066,0.035,0.15,0.089,0.406c-1.484,0-2.942,0.083-4.379-0.051
		c-0.42-0.039-0.844-0.646-1.164-1.07c-6.016-7.972-13.65-13.879-23.131-16.971c-18.403-6.001-35.124-2.654-49.613,10.244
		c-8.817,7.849-13.833,17.893-15.476,29.619c-3.456,24.67,12.676,48.72,36.983,54.267c20.196,4.609,37.078-1.459,50.464-17.271
		c0.278-0.328,0.738-0.676,1.133-0.7c1.389-0.085,2.786-0.033,4.573-0.033c-1.535,1.948-2.8,3.724-4.236,5.347
		c-8.669,9.798-19.49,15.747-32.42,17.694c-27.795,4.187-54.165-14.286-59.936-41.925c-0.463-2.219-0.708-4.482-1.054-6.726
		C129.798,111.34,129.798,108.54,129.798,105.74z"/>
	<path fill-rule="evenodd" clip-rule="evenodd" d="M341.734,166.713c-2.329,0-4.558,0-6.939,0c0-18.286,0-36.572,0-54.909
		c-29.407,0-58.66,0-88.018,0c0,39.968,0,79.87,0,119.854c-2.363,0-4.624,0-7.059,0c0-0.438,0-0.9,0-1.361
		c0-40.677-0.066-81.354,0.074-122.029c0.021-5.944,1.617-11.762,4.103-17.213c7.714-16.92,20.669-27.487,39.036-30.508
		c16.762-2.757,31.547,2.084,43.869,13.87c8.01,7.661,12.888,17.086,14.809,27.988c0.497,2.818,1.192,5.839,0.663,8.545
		c-0.819,4.186-0.268,8.3-0.441,12.436c-0.179,4.231-0.04,8.478-0.04,12.717c0,9.919,0,19.839-0.002,29.758
		C341.788,166.096,341.76,166.332,341.734,166.713z"/>
	<path fill-rule="evenodd" clip-rule="evenodd" d="M360.752,231.697c-2.426,0-4.654,0-7.033,0c0-0.464,0-0.889,0-1.313
		c0-40.438-0.004-80.877,0.032-121.315c0.001-0.778,0.62-1.541,0.706-2.338c1.101-10.104,4.51-19.326,10.658-27.438
		c8.856-11.684,20.521-18.847,35.014-21.313c1.178-0.201,2.382-0.264,3.551-0.503c0.554-0.113,1.119-0.408,1.567-0.762
		c8.497-6.719,16.979-13.459,25.462-20.196c7.231-5.742,14.459-11.49,21.703-17.216c0.381-0.301,0.904-0.59,1.365-0.597
		c3.358-0.049,6.719-0.025,10.078-0.019c0.104,0,0.207,0.06,0.512,0.154c-1.532,1.227-2.945,2.366-4.367,3.494
		c-17.314,13.744-34.625,27.491-51.964,41.205c-0.601,0.475-1.458,0.813-2.22,0.868c-10.019,0.728-18.954,4.205-26.74,10.534
		c-9.44,7.675-15.092,17.587-17.164,29.56c-0.027,0.157-0.039,0.318-0.045,0.477c-0.008,0.199-0.002,0.397-0.002,0.68
		c15.67,0,31.327,0,47.097,0c1.894-15.622,9.033-28.313,21.735-37.723c7.703-5.707,16.404-9.002,25.949-9.935
		c23.943-2.339,41.766,10.907,49.842,23.706c-1.641,0-3.165,0.027-4.688-0.028c-0.236-0.008-0.497-0.36-0.686-0.601
		c-7.67-9.799-17.556-16.127-29.807-18.351c-16.559-3.005-31.111,1.37-43.369,12.887c-7.81,7.337-12.476,16.474-14.397,27.009
		c-0.178,0.976-0.258,1.97-0.402,3.102c16.244,0,32.381,0,48.584,0c0,2.71,0,5.285,0,7.989c-16.242,0-32.42,0-48.86,0
		c0.227,1.954,0.316,3.778,0.662,5.553c3.372,17.313,13.03,29.797,29.146,36.965c19.94,8.869,43.941,2.847,57.571-14.194
		c0.75-0.938,1.486-1.397,2.687-1.277c1.021,0.104,2.063,0.021,3.434,0.021c-1.177,1.553-2.137,2.946-3.223,4.233
		c-8.725,10.333-19.752,16.688-33.125,18.734c-27.568,4.221-53.738-13.655-59.879-40.849c-0.604-2.673-0.852-5.428-1.2-8.153
		c-0.095-0.734-0.305-1.028-1.091-1.027c-15.359,0.02-30.719,0.02-46.078,0.001c-0.781-0.001-1.111,0.234-1.022,1.024
		c0.04,0.355,0.007,0.72,0.007,1.079c0,38.038,0,76.076,0,114.114C360.752,230.491,360.752,231.043,360.752,231.697z"/>
</g>
<g>
</g>
<g>
</g>
<g>
</g>
<g>
</g>
<g>
</g>
<g>
</g>
</svg>
