<?xml version="1.0" encoding="utf-8"?>
<!-- Generator: Adobe Illustrator 16.0.0, SVG Export Plug-In . SVG Version: 6.00 Build 0)  -->
<!DOCTYPE svg PUBLIC "-//W3C//DTD SVG 1.1//EN" "http://www.w3.org/Graphics/SVG/1.1/DTD/svg11.dtd">
<svg version="1.1" id="Calque_1" xmlns="http://www.w3.org/2000/svg" xmlns:xlink="http://www.w3.org/1999/xlink" x="0px" y="0px"
	 width="795px" height="295px" viewBox="0 0 795 295" enable-background="new 0 0 795 295" xml:space="preserve">
<g>
	<path fill-rule="evenodd" clip-rule="evenodd" fill="none" d="M485.78,14.24c78.72,0,157.439,0,236.159,0
		c0,119.04,0,238.08,0,357.12c-206.399,0-412.799,0-619.199,0c0-119.04,0-238.08,0-357.12c124.32,0,248.64,0,372.96,0
		c0,73.335,0,146.67,0,219.978c3.452,0,6.711,0,10.063,0c0-0.556,0-1.03,0-1.504c0-13.8,0.012-27.599-0.025-41.398
		c-0.003-1.005,0.265-1.555,1.166-2.049c7.771-4.26,15.514-8.574,23.265-12.871c2.607-1.446,5.216-2.889,7.864-4.356
		c0.886,1.115,1.71,2.14,2.521,3.176c13.804,17.622,27.604,35.247,41.408,52.869c11.931,15.229,23.868,30.454,35.799,45.685
		c7,8.937,13.991,17.881,21,26.812c0.225,0.286,0.596,0.644,0.905,0.649c2.779,0.051,5.561,0.029,8.634,0.029
		c-34.757-44.369-69.338-88.515-103.968-132.721c17.13-9.505,34.107-18.927,51.082-28.346c-6.17-11.673-18.318-22.847-35.31-25.707
		c-23.381-3.935-41.316,5.025-54.342,24.574c0-0.509,0-0.986,0-1.463c0-38.039,0-76.077,0-114.116
		C485.765,20.399,485.774,17.32,485.78,14.24z M349.294,179.128c0.026-29.595-23.829-52.61-51.884-53.326
		c-29.659-0.756-54.473,22.923-54.719,52.774c-0.246,29.896,23.601,53.167,52.009,53.813
		C325.027,233.079,349.352,208.656,349.294,179.128z M413.039,125.841c-28.73-0.274-53.112,23.18-53.342,52.798
		c-0.229,29.518,23.33,53.062,51.941,53.749c30.094,0.724,54.577-23.336,54.669-53.073
		C466.401,148.911,441.56,125.597,413.039,125.841z M178.796,232.343c0.483,0,0.879,0.041,1.266-0.006
		c3.637-0.444,7.337-0.608,10.896-1.404c27.533-6.152,46.431-33.4,40.259-62.675c-4.06-19.258-15.834-32.355-34.212-39.42
		c-2.833-1.089-5.764-2.055-8.737-2.614c-2.604-0.491-5.329-0.357-8.002-0.447c-1.624-0.055-1.628-0.01-1.628,1.637
		c0,34.229-0.001,68.458,0.006,102.687C178.644,230.809,178.737,231.518,178.796,232.343z"/>
	<path fill-rule="evenodd" clip-rule="evenodd" d="M485.78,14.24c-0.006,3.08-0.016,6.159-0.017,9.239c0,38.039,0,76.077,0,114.116
		c0,0.477,0,0.955,0,1.463c13.025-19.549,30.961-28.509,54.342-24.574c16.991,2.859,29.14,14.033,35.31,25.707
		c-16.975,9.419-33.952,18.841-51.082,28.346c34.63,44.206,69.211,88.352,103.968,132.721c-3.073,0-5.854,0.021-8.634-0.029
		c-0.31-0.006-0.681-0.363-0.905-0.649c-7.009-8.931-14-17.875-21-26.812c-11.931-15.23-23.868-30.455-35.799-45.685
		c-13.805-17.622-27.604-35.247-41.408-52.869c-0.812-1.036-1.636-2.061-2.521-3.176c-2.648,1.467-5.257,2.91-7.864,4.356
		c-7.751,4.297-15.493,8.611-23.265,12.871c-0.901,0.494-1.169,1.043-1.166,2.049c0.037,13.8,0.025,27.599,0.025,41.398
		c0,0.474,0,0.948,0,1.504c-3.353,0-6.611,0-10.063,0c0-73.307,0-146.643,0-219.978C479.061,14.24,482.42,14.24,485.78,14.24z"/>
	<path fill-rule="evenodd" clip-rule="evenodd" d="M349.294,179.128c0.058,29.528-24.267,53.951-54.593,53.262
		c-28.409-0.646-52.255-23.917-52.009-53.813c0.246-29.851,25.06-53.531,54.719-52.774
		C325.465,126.518,349.32,149.533,349.294,179.128z M246.799,179.977c0.478,27.772,24.478,51.022,54.115,48.084
		c27.698-2.745,44.558-26.817,44.158-48.084C312.343,179.977,279.615,179.977,246.799,179.977z"/>
	<path fill-rule="evenodd" clip-rule="evenodd" d="M413.039,125.841c28.521-0.245,53.362,23.07,53.269,53.474
		c-0.092,29.737-24.575,53.797-54.669,53.073c-28.612-0.688-52.17-24.231-51.941-53.749
		C359.927,149.021,384.309,125.567,413.039,125.841z M363.688,180.001c1.049,18.043,8.676,32.231,24.165,41.271
		c17.82,10.402,35.943,9.745,53.064-1.767c13.856-9.316,20.592-22.941,21.369-39.505
		C429.375,180.001,396.649,180.001,363.688,180.001z"/>
	<path fill-rule="evenodd" clip-rule="evenodd" d="M178.796,232.343c-0.059-0.825-0.152-1.534-0.152-2.243
		c-0.007-34.229-0.006-68.458-0.006-102.687c0-1.646,0.005-1.691,1.628-1.637c2.673,0.09,5.398-0.044,8.002,0.447
		c2.973,0.56,5.903,1.525,8.737,2.614c18.378,7.065,30.152,20.163,34.212,39.42c6.171,29.275-12.727,56.522-40.259,62.675
		c-3.56,0.796-7.26,0.96-10.896,1.404C179.675,232.384,179.279,232.343,178.796,232.343z M228.309,178.426
		c-0.449-0.021-0.686-0.04-0.922-0.041c-12.431-0.051-24.862-0.086-37.292-0.176c-1.127-0.008-1.385,0.332-1.383,1.411
		c0.033,15.392,0.023,30.785,0.023,46.177c0,0.428,0,0.855,0,1.275c6.087,0.304,19.614-7.145,26.487-14.666
		C223.968,202.832,228.251,191.502,228.309,178.426z"/>
	<path fill-rule="evenodd" clip-rule="evenodd" fill="none" d="M246.799,179.977c32.816,0,65.544,0,98.272,0
		c0.4,21.267-16.46,45.339-44.158,48.084C271.276,230.999,247.276,207.749,246.799,179.977z"/>
	<path fill-rule="evenodd" clip-rule="evenodd" fill="none" d="M363.688,180.001c32.961,0,65.687,0,98.598,0
		c-0.777,16.564-7.513,30.188-21.369,39.505c-17.121,11.512-35.244,12.169-53.064,1.767
		C372.364,212.232,364.737,198.044,363.688,180.001z"/>
	<path fill-rule="evenodd" clip-rule="evenodd" fill="none" d="M228.309,178.426c-0.058,13.076-4.341,24.406-13.088,33.979
		c-6.873,7.521-20.4,14.97-26.487,14.666c0-0.42,0-0.848,0-1.275c0-15.392,0.01-30.785-0.023-46.177
		c-0.002-1.079,0.256-1.419,1.383-1.411c12.431,0.09,24.862,0.125,37.292,0.176C227.624,178.386,227.86,178.405,228.309,178.426z"/>
</g>
<g>
</g>
<g>
</g>
<g>
</g>
<g>
</g>
<g>
</g>
<g>
</g>
</svg>
