<?xml version="1.0" encoding="utf-8"?>
<!-- Generator: Adobe Illustrator 16.0.0, SVG Export Plug-In . SVG Version: 6.00 Build 0)  -->
<!DOCTYPE svg PUBLIC "-//W3C//DTD SVG 1.1//EN" "http://www.w3.org/Graphics/SVG/1.1/DTD/svg11.dtd">
<svg version="1.1" id="Calque_1" xmlns="http://www.w3.org/2000/svg" xmlns:xlink="http://www.w3.org/1999/xlink" x="0px" y="0px"
	 width="522.727px" height="221.212px" viewBox="0 0 522.727 221.212" enable-background="new 0 0 522.727 221.212"
	 xml:space="preserve">
<g>
	<g>
		<path fill-rule="evenodd" clip-rule="evenodd" fill="none" d="M-24.225,243.768c0-77.986,0-155.971,0-233.957
			c203.225,0,406.451,0,609.675,0c0,77.985,0,155.97,0,233.955C382.226,243.768,179,243.768-24.225,243.768z M513.114,199.338
			c-22.036-28.133-43.847-55.976-65.718-83.898c4.271-3.391,8.418-6.663,12.542-9.963c4.103-3.283,8.267-6.492,12.415-9.903
			c-5.91-4.723-12.442-7.26-19.72-7.623c-11.147-0.556-20.485,3.518-28.306,11.962c0-27.354,0-54.278,0-81.222
			c-2.17,0-4.199,0-6.183,0c-0.06,0.158-0.091,0.203-0.091,0.248c-0.016,29.52-0.029,59.041-0.044,88.561
			c0,0.099-0.02,0.2-0.041,0.297c-0.009,0.039-0.04,0.087-0.074,0.101c-0.043,0.018-0.098,0.004-0.181,0.004
			c-0.219-0.43-0.44-0.881-0.674-1.327c-7.149-13.685-22.093-20.883-37.096-18.049c-14.271,2.695-25.008,13.69-27.59,27.963
			c-0.061,0.335-0.211,0.653-0.411,1.256c-2.247-15.189-13.915-27.355-29.557-29.507c-7.014-0.964-13.771,0.095-20.072,3.316
			c-9.848,5.034-15.924,13.108-18.589,23.874c-2.119-8.883-6.726-16.031-14.129-21.278c-7.425-5.262-15.782-6.856-24.698-6.222
			c-0.329,4.326-0.168,68.154,0.174,69.32c0.286,0.018,0.586,0.061,0.884,0.049c2.088-0.078,4.179,0.189,6.26-0.434
			c1.281-0.385,2.71-0.244,4.027-0.541c13.446-3.035,22.381-11.066,26.645-24.216c0.283-0.873,0.487-1.771,0.729-2.658
			c2.087,8.28,6.299,15.143,13.044,20.345c6.762,5.215,14.483,7.594,22.986,7.125c8.165-0.449,15.354-3.469,21.396-9.01
			c5.999-5.503,9.571-12.358,10.909-20.669c3.609,16.33,13.121,26.304,29.445,29.404c16.564,1.682,28.535-5.221,36.617-19.864
			c0,1.964,0,3.618,0,5.272c0,1.712,0,3.425,0,5.138c0,1.663-0.018,3.325,0.005,4.987c0.021,1.688-0.1,3.383,0.075,5.02
			c2.176,0,4.168,0,6.277,0c0-0.65,0-1.197,0-1.744c0-6.8,0.02-13.601-0.021-20.402c-0.006-0.953,0.263-1.578,1.017-2.17
			c5.859-4.605,11.688-9.252,17.529-13.881c0.301-0.238,0.637-0.434,0.999-0.678c0.369,0.454,0.691,0.837,1,1.23
			c4.471,5.71,8.937,11.424,13.409,17.131c12.672,16.173,25.346,32.345,38.019,48.517c3.479,4.439,6.962,8.877,10.439,13.316
			c0.342,0.436,0.628,0.859,1.313,0.838C509.628,199.303,511.184,199.338,513.114,199.338z M30.069,87.278
			c-5.922,15.428-1.299,34.253,13.447,45.046c14.466,10.588,34.603,9.969,48.437-2.024c13.637-11.822,16.127-30.039,10.836-43.022
			C78.598,87.278,54.382,87.278,30.069,87.278z M130.916,143.008c0.316,0.126,0.43,0.138,0.488,0.2
			c0.172,0.183,0.321,0.387,0.481,0.581c8.337,10.044,19.021,14.427,31.956,12.82c8.342-1.035,15.35-4.926,20.973-11.2
			c12.38-13.813,11.635-35.466-2.345-48.296c-7.868-7.221-17.244-10.162-27.809-8.902c-7.949,0.948-14.781,4.402-20.373,10.187
			c-6.339,6.558-9.557,14.428-9.766,23.528c-0.051,2.215,0.038,4.432,0.039,6.647c0.003,22.918,0.002,45.836,0.002,68.756
			c0,0.641,0,1.281,0,2.078c2.207,0.049,4.231,0.053,6.353,0.002C130.916,180.523,130.916,161.85,130.916,143.008z M12.824,87.26
			c-5.509,19.134,0.104,44.174,20.874,59.354c20.12,14.706,47.528,14.155,67-1.11c20.438-16.021,24.527-40.87,19.355-58.29
			c-1.013,0-2.064-0.005-3.116,0.001c-1.076,0.007-2.151,0.027-3.269,0.042c6.724,24.267-4.278,44.013-17.433,53.58
			c-16.23,11.802-33.664,13.367-51.802,4.845c-8.585-4.033-15.267-10.429-20.127-18.591c-7.439-12.493-8.908-25.813-5.019-39.832
			C17.049,87.26,14.992,87.26,12.824,87.26z"/>
		<path fill-rule="evenodd" clip-rule="evenodd" d="M513.114,199.338c-1.93,0-3.485-0.035-5.037,0.016
			c-0.686,0.021-0.972-0.402-1.313-0.838c-3.478-4.439-6.96-8.877-10.439-13.316c-12.673-16.172-25.347-32.344-38.019-48.517
			c-4.473-5.707-8.938-11.421-13.409-17.131c-0.309-0.394-0.631-0.776-1-1.23c-0.362,0.244-0.698,0.439-0.999,0.678
			c-5.842,4.629-11.67,9.275-17.529,13.881c-0.754,0.592-1.022,1.217-1.017,2.17c0.041,6.801,0.021,13.602,0.021,20.402
			c0,0.547,0,1.094,0,1.744c-2.109,0-4.102,0-6.277,0c-0.175-1.637-0.054-3.332-0.075-5.02c-0.022-1.662-0.005-3.324-0.005-4.987
			c0-1.713,0-3.426,0-5.138c0-1.654,0-3.309,0-5.272c-8.082,14.643-20.053,21.545-36.617,19.864
			c-16.324-3.1-25.836-13.074-29.445-29.404c-1.338,8.311-4.91,15.166-10.909,20.669c-6.043,5.542-13.231,8.561-21.396,9.01
			c-8.503,0.469-16.225-1.91-22.986-7.125c-6.745-5.203-10.957-12.065-13.044-20.345c-0.241,0.887-0.445,1.785-0.729,2.658
			c-4.264,13.15-13.198,21.181-26.645,24.216c-1.317,0.297-2.746,0.156-4.027,0.541c-2.081,0.623-4.172,0.355-6.26,0.434
			c-0.298,0.012-0.598-0.031-0.884-0.049c-0.342-1.166-0.503-64.994-0.174-69.32c8.916-0.635,17.273,0.959,24.698,6.222
			c7.403,5.248,12.01,12.395,14.129,21.278c2.665-10.766,8.741-18.84,18.589-23.874c6.302-3.222,13.059-4.281,20.072-3.316
			c15.642,2.151,27.31,14.317,29.557,29.507c0.2-0.603,0.351-0.921,0.411-1.256c2.582-14.273,13.319-25.268,27.59-27.963
			c15.003-2.834,29.946,4.364,37.096,18.049c0.233,0.446,0.455,0.896,0.674,1.327c0.083,0,0.138,0.013,0.181-0.004
			c0.034-0.014,0.065-0.062,0.074-0.101c0.021-0.098,0.041-0.198,0.041-0.297c0.015-29.52,0.028-59.041,0.044-88.561
			c0-0.045,0.031-0.09,0.091-0.248c1.983,0,4.013,0,6.183,0c0,26.943,0,53.867,0,81.222c7.82-8.445,17.158-12.519,28.306-11.962
			c7.277,0.363,13.81,2.9,19.72,7.623c-4.148,3.411-8.313,6.62-12.415,9.903c-4.124,3.301-8.271,6.572-12.542,9.963
			C469.267,143.362,491.078,171.205,513.114,199.338z M287.62,123.077c0.771,11.468,5.729,20.24,15.649,25.617
			c11.1,6.015,22.083,5.107,32.39-2.195c8.413-5.959,12.433-16.482,11.893-23.422C327.677,123.077,307.8,123.077,287.62,123.077z
			 M356.306,123.693c0.149,1.373,0.212,2.521,0.404,3.646c2.905,16.998,19.1,27.777,35.314,24.613
			c12.534-2.447,22.373-12.683,24.082-25.299c0.131-0.964,0.018-1.96,0.018-2.959C396.144,123.693,376.368,123.693,356.306,123.693z
			 M277.763,111.504c-0.491,0.344-0.826,0.554-1.134,0.799c-8.162,6.475-16.315,12.961-24.493,19.418
			c-0.698,0.552-0.987,1.128-0.981,2.022c0.036,5.739,0.017,11.479,0.021,17.219c0,0.443,0.044,0.887,0.077,1.486
			c10.34-0.844,18.43-5.398,23.908-14.101C280.446,129.954,281.168,120.975,277.763,111.504z M251.261,124.276
			c7.917-6.282,15.666-12.397,23.455-18.639c-5.874-8.143-13.583-12.525-23.455-13.265
			C251.261,103.027,251.261,113.518,251.261,124.276z"/>
		<path fill-rule="evenodd" clip-rule="evenodd" d="M30.069,87.278c24.313,0,48.529,0,72.719,0
			c5.291,12.983,2.801,31.2-10.836,43.022c-13.833,11.993-33.971,12.612-48.437,2.024C28.771,121.532,24.147,102.706,30.069,87.278z
			"/>
		<path fill-rule="evenodd" clip-rule="evenodd" d="M130.916,143.008c0,18.841,0,37.515,0,56.402
			c-2.121,0.051-4.146,0.047-6.353-0.002c0-0.797,0-1.438,0-2.078c0-22.92,0.001-45.838-0.002-68.756
			c-0.001-2.216-0.09-4.433-0.039-6.647c0.209-9.1,3.427-16.97,9.766-23.528c5.592-5.785,12.424-9.238,20.373-10.187
			c10.564-1.26,19.94,1.681,27.809,8.902c13.979,12.83,14.725,34.482,2.345,48.296c-5.623,6.274-12.631,10.165-20.973,11.2
			c-12.935,1.607-23.619-2.775-31.956-12.82c-0.16-0.194-0.31-0.398-0.481-0.581C131.345,143.146,131.232,143.134,130.916,143.008z
			 M175.394,97.283c-0.866,0.681-1.696,1.327-2.521,1.982c-13.679,10.859-27.355,21.72-41.031,32.581
			c-1.062,0.844-1.065,0.882-0.556,2.137c0.075,0.186,0.155,0.371,0.236,0.555c5.715,12.902,19.608,20.082,33.289,17.398
			c12.899-2.529,23.806-13.742,24.253-28.685c0.198-6.639-1.685-12.712-5.521-18.151C181.347,101.985,178.663,99.376,175.394,97.283
			z"/>
		<path fill-rule="evenodd" clip-rule="evenodd" d="M12.824,87.26c2.168,0,4.226,0,6.464,0c-3.889,14.019-2.42,27.339,5.019,39.832
			c4.86,8.162,11.542,14.558,20.127,18.591c18.138,8.522,35.572,6.958,51.802-4.845c13.154-9.566,24.156-29.313,17.433-53.58
			c1.117-0.015,2.192-0.035,3.269-0.042c1.052-0.007,2.104-0.001,3.116-0.001c5.172,17.42,1.082,42.268-19.355,58.29
			c-19.473,15.265-46.881,15.816-67,1.11C12.928,131.434,7.314,106.395,12.824,87.26z"/>
		<path fill-rule="evenodd" clip-rule="evenodd" fill="none" d="M287.62,123.077c20.181,0,40.058,0,59.932,0
			c0.54,6.939-3.479,17.463-11.893,23.422c-10.307,7.302-21.29,8.21-32.39,2.195C293.348,143.317,288.391,134.544,287.62,123.077z"
			/>
		<path fill-rule="evenodd" clip-rule="evenodd" fill="none" d="M356.306,123.693c20.062,0,39.838,0,59.818,0
			c0,0.999,0.113,1.995-0.018,2.959c-1.709,12.616-11.548,22.852-24.082,25.299c-16.215,3.164-32.409-7.615-35.314-24.613
			C356.518,126.213,356.456,125.066,356.306,123.693z"/>
		<path fill-rule="evenodd" clip-rule="evenodd" fill="none" d="M277.763,111.504c3.405,9.471,2.683,18.449-2.602,26.844
			c-5.479,8.703-13.568,13.257-23.908,14.101c-0.033-0.6-0.077-1.043-0.077-1.486c-0.005-5.74,0.015-11.48-0.021-17.219
			c-0.006-0.895,0.283-1.471,0.981-2.022c8.178-6.457,16.331-12.943,24.493-19.418C276.937,112.059,277.272,111.849,277.763,111.504
			z"/>
		<path fill-rule="evenodd" clip-rule="evenodd" fill="none" d="M251.261,124.276c0-10.758,0-21.249,0-31.904
			c9.872,0.739,17.581,5.122,23.455,13.265C266.927,111.878,259.178,117.994,251.261,124.276z"/>
		<path fill-rule="evenodd" clip-rule="evenodd" fill="none" d="M175.394,97.283c3.269,2.093,5.953,4.702,8.149,7.816
			c3.837,5.439,5.72,11.513,5.521,18.151c-0.447,14.943-11.354,26.156-24.253,28.685c-13.681,2.684-27.574-4.496-33.289-17.398
			c-0.081-0.184-0.161-0.369-0.236-0.555c-0.51-1.255-0.506-1.293,0.556-2.137c13.676-10.861,27.353-21.722,41.031-32.581
			C173.698,98.61,174.528,97.964,175.394,97.283z"/>
	</g>
</g>
<g>
</g>
<g>
</g>
<g>
</g>
<g>
</g>
<g>
</g>
<g>
</g>
</svg>
