<?xml version="1.0" encoding="utf-8"?>
<!-- Generator: Adobe Illustrator 16.0.0, SVG Export Plug-In . SVG Version: 6.00 Build 0)  -->
<!DOCTYPE svg PUBLIC "-//W3C//DTD SVG 1.1//EN" "http://www.w3.org/Graphics/SVG/1.1/DTD/svg11.dtd">
<svg version="1.1" id="Calque_1" xmlns="http://www.w3.org/2000/svg" xmlns:xlink="http://www.w3.org/1999/xlink" x="0px" y="0px"
	 width="841.89px" height="595.28px" viewBox="0 0 841.89 595.28" enable-background="new 0 0 841.89 595.28" xml:space="preserve">
<g>
	<path fill-rule="evenodd" clip-rule="evenodd" fill="none" d="M590.102,344.254c0,39.84,0,79.68,0,119.52c-115.2,0-230.4,0-345.6,0
		c0-100.479,0-200.959,0-301.439c115.2,0,230.4,0,345.6,0c0,58.56,0,117.12,0,175.68c-0.079-0.383-0.205-0.762-0.229-1.147
		c-0.291-4.813-1.19-9.524-2.942-13.997c-8.473-21.64-24.302-33.915-47.411-36.342c-10.471-1.1-20.58,0.995-29.816,6.142
		c-18.657,10.398-28.926,26.404-29.145,47.756c-0.416,40.514-0.121,81.034-0.121,121.553c0,0.426,0,0.852,0,1.327
		c3.415,0,6.676,0,10.107,0c0-30.084,0-60.106,0-90.407c0.394,0.509,0.588,0.76,0.783,1.011
		c11.093,14.269,25.659,21.702,43.744,21.992c9.399,0.151,18.302-2.079,26.493-6.713c15.021-8.496,24.276-21.234,27.578-38.214
		C589.574,348.756,589.787,346.495,590.102,344.254z M388.314,285.38c-18.999,0-37.998,0.007-56.997-0.023
		c-0.961-0.001-1.357,0.27-1.664,1.198c-1.725,5.225-2.73,10.585-3.004,16.064c-0.538,10.774,1.518,21.043,6.331,30.721
		c13.871,27.891,45.96,41.057,75.583,30.808c31.512-10.903,48.707-44.908,38.436-77.271c-0.38-1.196-0.928-1.531-2.167-1.528
		C425.993,285.394,407.154,285.38,388.314,285.38z M313.052,285.38c-3.222,0-6.256,0.04-9.288-0.024
		c-0.915-0.02-1.276,0.297-1.411,1.15c-0.635,4.014-1.444,8.005-1.925,12.036c-1.049,8.797-0.508,17.561,1.284,26.214
		c3.796,18.334,12.49,34.015,26.18,46.786c15.122,14.105,33.055,22.008,53.719,23.598c9.106,0.701,18.116,0.065,26.998-2.076
		c19.191-4.629,35.152-14.535,47.731-29.724c12.639-15.263,19.265-32.919,20.168-52.698c0.352-7.694-0.365-15.315-2.068-22.837
		c-0.547-2.418-0.519-2.425-2.987-2.425c-2.63,0-5.259,0-7.999,0c4.616,16.788,4.093,33.25-2.025,49.398
		c-6.141,16.21-16.632,28.991-31.213,38.358c-25.581,16.433-58.49,16.32-84.481-0.38c-12.611-8.104-22.119-19.054-28.404-32.663
		C309.194,322.481,307.948,304.249,313.052,285.38z M394.062,229.624c-0.714-1.287-1.168-2.305-1.795-3.201
		c-2.464-3.524-7.595-3.701-10.121-0.22c-1.026,1.413-1.81,3.137-2.221,4.837c-1.677,6.92-1.619,13.925-0.435,20.915
		c0.447,2.643,1.246,5.205,3.026,7.326c2.757,3.285,7.574,3.011,9.9-0.596c0.591-0.917,1.011-1.943,1.632-3.16
		c0,1.927,0,3.615,0,5.354c2.171,0,4.221,0,6.315,0c0-16.646,0-33.211,0-49.802c-2.133,0-4.184,0-6.301,0
		C394.062,217.199,394.062,223.227,394.062,229.624z M412.554,234.039c0.251-0.892,0.396-1.683,0.696-2.41
		c0.711-1.726,2.015-2.332,4.35-2.123c1.681,0.15,2.847,1.056,3.079,2.812c0.253,1.916,0.211,3.871,0.298,5.822
		c-1.963,0.103-3.711,0.191-5.459,0.285c-4.498,0.241-7.721,2.396-8.918,6.213c-1.182,3.769-1.291,7.642-0.24,11.456
		c0.773,2.804,2.543,4.819,5.554,5.321c3.227,0.538,5.817-0.56,7.602-3.365c0.434-0.681,0.827-1.388,1.238-2.083
		c0.069,0.021,0.139,0.041,0.208,0.062c0,1.619,0,3.238,0,4.842c2.131,0,4.149,0,6.254,0c0-0.562,0-1.038,0-1.514
		c0-6.398,0.008-12.797-0.004-19.195c-0.005-2.838,0.024-5.679-0.097-8.513c-0.162-3.813-2.401-6.594-6.139-7.422
		c-1.767-0.392-3.649-0.482-5.464-0.395c-4.915,0.238-8.508,3.838-8.688,8.597C408.706,232.958,410.613,233.494,412.554,234.039z
		 M491.694,224.373c0,12.246,0,24.346,0,36.492c2.234,0,4.4,0,6.67,0c0-0.565,0-1.038,0-1.511c0-8.037,0.006-16.075-0.006-24.112
		c-0.002-1.444,0.278-2.778,1.253-3.892c0.851-0.973,1.914-1.402,3.207-1.177c1.317,0.229,1.97,1.168,2.294,2.333
		c0.201,0.718,0.272,1.494,0.274,2.243c0.018,8.237,0.012,16.475,0.012,24.712c0,0.464,0,0.929,0,1.435c2.299,0,4.438,0,6.653,0
		c0.019-0.325,0.046-0.594,0.046-0.864c0.002-9.517,0.01-19.034-0.015-28.551c-0.002-0.787-0.141-1.597-0.355-2.356
		c-0.831-2.934-3.151-5.097-5.688-5.329c-3.236-0.295-5.677,0.944-7.235,3.833c-0.219,0.406-0.447,0.808-0.671,1.212
		c-0.072-0.009-0.146-0.019-0.218-0.028c0-1.475,0-2.95,0-4.442C495.771,224.373,493.786,224.373,491.694,224.373z M462.919,242.647
		c0,1.198-0.076,2.402,0.015,3.593c0.264,3.476,0.803,6.897,2.475,10.027c2.954,5.535,10.271,7.095,15.092,3.196
		c2.136-1.727,3.285-4.107,3.963-6.69c1.621-6.169,1.614-12.406,0.408-18.633c-0.599-3.092-1.705-6.026-4.191-8.155
		c-5.136-4.397-12.998-2.336-15.797,4.117C463.146,234.106,462.856,238.358,462.919,242.647z M346.244,242.65
		c0-1.039,0.058-2.082-0.01-3.117c-0.232-3.519-0.728-6.983-2.353-10.184c-2.365-4.657-7.068-6.676-12.089-5.172
		c-3.798,1.138-5.719,4.027-6.867,7.55c-1.546,4.748-1.647,9.648-1.321,14.573c0.22,3.321,0.755,6.58,2.27,9.593
		c2.288,4.552,6.626,6.538,11.601,5.366c3.725-0.877,5.799-3.471,7.088-6.838C346.014,250.634,346.349,246.668,346.244,242.65z
		 M372.68,260.913c0.021-0.482,0.053-0.873,0.053-1.263c0.002-9.237,0.003-18.475-0.001-27.713c0-0.518-0.027-1.04-0.083-1.555
		c-0.341-3.152-2.684-5.918-5.518-6.53c-3.021-0.651-5.935,0.76-7.645,3.704c-0.206,0.355-0.405,0.715-0.608,1.073
		c-0.195-1.175-0.159-2.288-0.218-3.394c-0.017-0.311-0.305-0.865-0.483-0.871c-1.941-0.063-3.885-0.04-5.796-0.04
		c0,12.313,0,24.444,0,36.536c2.242,0,4.38,0,6.584,0c0-0.533,0-0.969,0-1.406c0-7.998-0.052-15.997,0.052-23.993
		c0.017-1.319,0.534-2.724,1.153-3.917c0.602-1.16,1.861-1.598,3.204-1.391c1.293,0.2,2.063,1.07,2.351,2.271
		c0.239,0.998,0.364,2.046,0.368,3.073c0.029,7.998,0.015,15.996,0.019,23.994c0,0.461,0.038,0.922,0.061,1.42
		C368.372,260.913,370.44,260.913,372.68,260.913z M320.833,231.441c-3.738,0-7.428,0-11.128,0c0-4.883,0-9.616,0-14.477
		c3.75,0,7.411,0,11.084,0c0-2.06,0-3.989,0-5.917c-6.089,0-12.071,0-18.087,0c0,16.663,0,33.258,0,49.843c2.329,0,4.553,0,6.932,0
		c0-7.836,0-15.606,0-23.486c3.816,0,7.479,0,11.2,0C320.833,235.391,320.833,233.491,320.833,231.441z M435.118,230.326
		c0,0.687,0,1.163,0,1.639c0,7.478-0.006,14.956,0.003,22.434c0.005,3.342,1.567,5.53,4.477,6.264
		c1.891,0.477,3.782,0.368,5.659-0.08c0-2.032,0-4,0-5.954c-2.929-0.27-3.477-0.882-3.477-3.782c-0.001-6.358,0-12.716,0-19.074
		c0-0.432,0-0.864,0-1.462c1.229,0,2.362,0,3.513,0c0-2.065,0-3.963,0-6.027c-1.195,0-2.325,0-3.549,0c0-3.069,0-5.972,0-8.896
		c-2.236,0-4.37,0-6.669,0c0,3.014,0,5.944,0,8.989c-1.228,0-2.289,0-3.372,0c0,2.023,0,3.923,0,5.949
		C432.836,230.326,433.898,230.326,435.118,230.326z M456.831,260.922c0-12.241,0-24.365,0-36.506c-2.236,0-4.401,0-6.536,0
		c0,12.228,0,24.35,0,36.506C452.502,260.922,454.611,260.922,456.831,260.922z M453.513,211.775
		c-2.377,0.002-4.262,1.86-4.274,4.215c-0.013,2.382,1.985,4.411,4.297,4.364c2.372-0.049,4.336-2.05,4.307-4.39
		C457.813,213.645,455.879,211.774,453.513,211.775z"/>
	<path fill-rule="evenodd" clip-rule="evenodd" d="M590.102,344.254c-0.314,2.241-0.527,4.502-0.958,6.72
		c-3.302,16.979-12.558,29.718-27.578,38.214c-8.191,4.634-17.094,6.864-26.493,6.713c-18.085-0.29-32.651-7.724-43.744-21.992
		c-0.195-0.251-0.39-0.502-0.783-1.011c0,30.301,0,60.323,0,90.407c-3.432,0-6.692,0-10.107,0c0-0.476,0-0.901,0-1.327
		c0-40.519-0.295-81.039,0.121-121.553c0.219-21.352,10.487-37.357,29.145-47.756c9.236-5.147,19.346-7.242,29.816-6.142
		c23.109,2.427,38.938,14.703,47.411,36.342c1.752,4.473,2.651,9.185,2.942,13.997c0.023,0.386,0.149,0.765,0.229,1.147
		C590.102,340.094,590.102,342.174,590.102,344.254z M561.226,301.104c-0.459,0.351-0.875,0.659-1.281,0.981
		c-22.846,18.141-45.688,36.286-68.549,54.407c-0.783,0.621-0.977,1.123-0.586,2.092c2.689,6.662,6.553,12.537,11.864,17.366
		c11.707,10.643,25.453,14.742,41.044,12.117c10.231-1.722,18.986-6.503,26.089-14.077c10.282-10.966,14.5-24.044,12.779-38.932
		c-1.116-9.653-5.098-18.138-11.5-25.455C568.205,306.312,564.929,303.462,561.226,301.104z"/>
	<path fill-rule="evenodd" clip-rule="evenodd" d="M388.314,285.38c18.839,0,37.679,0.014,56.518-0.032
		c1.239-0.003,1.787,0.332,2.167,1.528c10.271,32.363-6.924,66.368-38.436,77.271c-29.623,10.249-61.712-2.917-75.583-30.808
		c-4.813-9.678-6.869-19.946-6.331-30.721c0.273-5.479,1.279-10.839,3.004-16.064c0.307-0.928,0.703-1.199,1.664-1.198
		C350.316,285.388,369.315,285.38,388.314,285.38z"/>
	<path fill-rule="evenodd" clip-rule="evenodd" d="M313.052,285.38c-5.104,18.869-3.857,37.101,4.276,54.713
		c6.285,13.609,15.793,24.56,28.404,32.663c25.992,16.7,58.9,16.813,84.481,0.38c14.581-9.367,25.072-22.148,31.213-38.358
		c6.118-16.148,6.642-32.61,2.025-49.398c2.74,0,5.369,0,7.999,0c2.469,0,2.44,0.007,2.987,2.425
		c1.703,7.522,2.42,15.143,2.068,22.837c-0.903,19.779-7.529,37.436-20.168,52.698c-12.579,15.188-28.54,25.095-47.731,29.724
		c-8.882,2.142-17.891,2.777-26.998,2.076c-20.664-1.59-38.597-9.492-53.719-23.598c-13.69-12.771-22.384-28.452-26.18-46.786
		c-1.792-8.653-2.333-17.417-1.284-26.214c0.481-4.031,1.29-8.022,1.925-12.036c0.135-0.853,0.497-1.169,1.411-1.15
		C306.796,285.42,309.83,285.38,313.052,285.38z"/>
	<path fill-rule="evenodd" clip-rule="evenodd" d="M394.062,229.624c0-6.397,0-12.425,0-18.548c2.117,0,4.168,0,6.301,0
		c0,16.59,0,33.156,0,49.802c-2.094,0-4.144,0-6.315,0c0-1.739,0-3.427,0-5.354c-0.621,1.217-1.041,2.244-1.632,3.16
		c-2.326,3.607-7.143,3.881-9.9,0.596c-1.78-2.121-2.579-4.683-3.026-7.326c-1.184-6.99-1.242-13.995,0.435-20.915
		c0.412-1.7,1.195-3.424,2.221-4.837c2.526-3.48,7.656-3.304,10.121,0.22C392.894,227.319,393.348,228.337,394.062,229.624z
		 M394.128,242.676c-0.115-1.993-0.077-4.01-0.39-5.971c-0.292-1.826-0.716-3.709-1.515-5.356c-1.075-2.216-3.453-2.15-4.7-0.018
		c-0.435,0.744-0.763,1.59-0.949,2.432c-1.184,5.367-1.1,10.779-0.324,16.182c0.189,1.319,0.656,2.625,1.174,3.861
		c0.41,0.98,1.188,1.696,2.394,1.706c1.237,0.01,2.003-0.672,2.544-1.686c0.205-0.385,0.379-0.792,0.52-1.205
		C393.984,249.392,394.049,246.041,394.128,242.676z"/>
	<path fill-rule="evenodd" clip-rule="evenodd" d="M412.554,234.039c-1.941-0.545-3.848-1.08-5.731-1.609
		c0.181-4.759,3.774-8.359,8.688-8.597c1.815-0.087,3.697,0.003,5.464,0.395c3.737,0.828,5.977,3.609,6.139,7.422
		c0.121,2.834,0.092,5.675,0.097,8.513c0.012,6.398,0.004,12.797,0.004,19.195c0,0.476,0,0.952,0,1.514c-2.105,0-4.123,0-6.254,0
		c0-1.604,0-3.223,0-4.842c-0.069-0.021-0.138-0.041-0.208-0.062c-0.411,0.695-0.804,1.401-1.238,2.083
		c-1.785,2.805-4.375,3.902-7.602,3.365c-3.011-0.502-4.781-2.518-5.554-5.321c-1.051-3.814-0.942-7.687,0.24-11.456
		c1.197-3.817,4.42-5.972,8.918-6.213c1.748-0.094,3.496-0.182,5.459-0.285c-0.087-1.951-0.045-3.906-0.298-5.822
		c-0.232-1.756-1.398-2.662-3.079-2.812c-2.335-0.208-3.638,0.397-4.35,2.123C412.95,232.356,412.805,233.147,412.554,234.039z
		 M421.12,243.47c-1.343,0-2.343-0.088-3.321,0.017c-3.057,0.329-4.759,1.658-5.157,4.415c-0.252,1.744-0.193,3.599,0.104,5.34
		c0.425,2.489,2.78,3.363,4.944,2.028c1.472-0.909,2.464-2.269,2.711-3.921C420.781,248.802,420.884,246.214,421.12,243.47z"/>
	<path fill-rule="evenodd" clip-rule="evenodd" d="M491.694,224.373c2.092,0,4.076,0,6.221,0c0,1.492,0,2.967,0,4.442
		c0.072,0.01,0.146,0.019,0.218,0.028c0.224-0.404,0.452-0.806,0.671-1.212c1.559-2.89,3.999-4.129,7.235-3.833
		c2.537,0.232,4.857,2.395,5.688,5.329c0.215,0.759,0.354,1.569,0.355,2.356c0.024,9.517,0.017,19.034,0.015,28.551
		c0,0.27-0.027,0.539-0.046,0.864c-2.215,0-4.354,0-6.653,0c0-0.506,0-0.971,0-1.435c0-8.237,0.006-16.475-0.012-24.712
		c-0.002-0.75-0.073-1.525-0.274-2.243c-0.324-1.165-0.977-2.104-2.294-2.333c-1.293-0.225-2.356,0.204-3.207,1.177
		c-0.975,1.114-1.255,2.448-1.253,3.892c0.012,8.037,0.006,16.075,0.006,24.112c0,0.473,0,0.946,0,1.511c-2.27,0-4.436,0-6.67,0
		C491.694,248.719,491.694,236.619,491.694,224.373z"/>
	<path fill-rule="evenodd" clip-rule="evenodd" d="M462.919,242.647c-0.063-4.289,0.228-8.541,1.964-12.544
		c2.799-6.453,10.661-8.515,15.797-4.117c2.486,2.129,3.593,5.063,4.191,8.155c1.206,6.227,1.213,12.464-0.408,18.633
		c-0.678,2.583-1.827,4.963-3.963,6.69c-4.821,3.898-12.138,2.338-15.092-3.196c-1.672-3.13-2.211-6.551-2.475-10.027
		C462.843,245.049,462.919,243.845,462.919,242.647z M469.625,240.607c0.286,3.555,0.342,6.244,0.771,8.871
		c0.289,1.771,0.886,3.575,1.744,5.146c0.954,1.748,3.122,1.664,4.238-0.005c0.521-0.779,0.942-1.682,1.169-2.589
		c1.333-5.328,1.344-10.746,0.81-16.165c-0.143-1.443-0.573-2.896-1.106-4.252c-0.646-1.645-1.924-2.328-3.491-2.109
		c-1.718,0.241-2.59,1.532-2.885,2.994C470.28,235.45,469.944,238.454,469.625,240.607z"/>
	<path fill-rule="evenodd" clip-rule="evenodd" d="M346.244,242.65c0.105,4.018-0.23,7.983-1.681,11.771
		c-1.29,3.367-3.364,5.96-7.088,6.838c-4.975,1.172-9.313-0.814-11.601-5.366c-1.515-3.014-2.05-6.272-2.27-9.593
		c-0.327-4.925-0.225-9.825,1.321-14.573c1.147-3.523,3.069-6.412,6.867-7.55c5.021-1.504,9.724,0.515,12.089,5.172
		c1.625,3.201,2.121,6.665,2.353,10.184C346.302,240.568,346.244,241.611,346.244,242.65z M339.649,241.7
		c-0.116-0.016-0.231-0.031-0.347-0.047c0-0.958,0.06-1.922-0.012-2.876c-0.185-2.46-0.264-4.951-1.398-7.227
		c-0.626-1.256-1.53-2.107-3.067-2.082c-1.49,0.024-2.391,0.887-2.924,2.105c-0.458,1.046-0.817,2.174-0.987,3.301
		c-0.714,4.73-0.578,9.485,0.063,14.199c0.252,1.854,0.857,3.749,1.722,5.405c1.017,1.946,3.238,1.853,4.449,0
		c0.428-0.656,0.837-1.408,0.959-2.164C338.677,248.786,339.145,245.24,339.649,241.7z"/>
	<path fill-rule="evenodd" clip-rule="evenodd" d="M372.68,260.913c-2.239,0-4.308,0-6.509,0c-0.022-0.498-0.061-0.959-0.061-1.42
		c-0.004-7.998,0.01-15.996-0.019-23.994c-0.003-1.026-0.129-2.075-0.368-3.073c-0.287-1.201-1.058-2.071-2.351-2.271
		c-1.343-0.208-2.602,0.23-3.204,1.391c-0.619,1.192-1.136,2.598-1.153,3.917c-0.104,7.997-0.052,15.995-0.052,23.993
		c0,0.437,0,0.873,0,1.406c-2.204,0-4.342,0-6.584,0c0-12.092,0-24.223,0-36.536c1.911,0,3.855-0.023,5.796,0.04
		c0.178,0.006,0.467,0.56,0.483,0.871c0.06,1.106,0.023,2.219,0.218,3.394c0.203-0.358,0.402-0.718,0.608-1.073
		c1.71-2.944,4.625-4.355,7.645-3.704c2.833,0.611,5.177,3.377,5.518,6.53c0.056,0.516,0.082,1.037,0.083,1.555
		c0.005,9.238,0.004,18.476,0.001,27.713C372.732,260.041,372.701,260.431,372.68,260.913z"/>
	<path fill-rule="evenodd" clip-rule="evenodd" d="M320.833,231.441c0,2.05,0,3.95,0,5.962c-3.721,0-7.383,0-11.2,0
		c0,7.88,0,15.65,0,23.486c-2.379,0-4.604,0-6.932,0c0-16.585,0-33.18,0-49.843c6.016,0,11.999,0,18.087,0c0,1.928,0,3.857,0,5.917
		c-3.673,0-7.334,0-11.084,0c0,4.861,0,9.594,0,14.477C313.406,231.441,317.095,231.441,320.833,231.441z"/>
	<path fill-rule="evenodd" clip-rule="evenodd" d="M435.118,230.326c-1.22,0-2.282,0-3.415,0c0-2.026,0-3.926,0-5.949
		c1.083,0,2.145,0,3.372,0c0-3.045,0-5.975,0-8.989c2.299,0,4.433,0,6.669,0c0,2.924,0,5.827,0,8.896c1.224,0,2.354,0,3.549,0
		c0,2.063,0,3.961,0,6.027c-1.15,0-2.283,0-3.513,0c0,0.598,0,1.03,0,1.462c0,6.358-0.001,12.716,0,19.074
		c0,2.9,0.548,3.513,3.477,3.782c0,1.954,0,3.921,0,5.954c-1.877,0.448-3.769,0.557-5.659,0.08
		c-2.909-0.734-4.472-2.921-4.477-6.264c-0.009-7.478-0.003-14.956-0.003-22.434C435.118,231.489,435.118,231.013,435.118,230.326z"
		/>
	<path fill-rule="evenodd" clip-rule="evenodd" d="M456.831,260.922c-2.22,0-4.329,0-6.536,0c0-12.156,0-24.278,0-36.506
		c2.135,0,4.3,0,6.536,0C456.831,236.558,456.831,248.682,456.831,260.922z"/>
	<path fill-rule="evenodd" clip-rule="evenodd" d="M453.513,211.775c2.366-0.001,4.3,1.87,4.329,4.189
		c0.029,2.339-1.935,4.341-4.307,4.39c-2.312,0.047-4.31-1.982-4.297-4.364C449.251,213.635,451.136,211.777,453.513,211.775z"/>
	<path fill-rule="evenodd" clip-rule="evenodd" fill="none" d="M561.226,301.104c3.703,2.357,6.979,5.207,9.86,8.5
		c6.402,7.317,10.384,15.802,11.5,25.455c1.721,14.888-2.497,27.966-12.779,38.932c-7.103,7.574-15.857,12.355-26.089,14.077
		c-15.591,2.625-29.337-1.475-41.044-12.117c-5.312-4.829-9.175-10.704-11.864-17.366c-0.391-0.969-0.197-1.471,0.586-2.092
		c22.86-18.121,45.703-36.267,68.549-54.407C560.351,301.764,560.767,301.455,561.226,301.104z"/>
	<path fill-rule="evenodd" clip-rule="evenodd" fill="none" d="M394.128,242.676c-0.08,3.365-0.145,6.716-1.246,9.944
		c-0.141,0.413-0.315,0.82-0.52,1.205c-0.541,1.014-1.308,1.696-2.544,1.686c-1.206-0.009-1.983-0.726-2.394-1.706
		c-0.518-1.237-0.985-2.542-1.174-3.861c-0.776-5.403-0.86-10.815,0.324-16.182c0.186-0.842,0.515-1.688,0.949-2.432
		c1.248-2.132,3.625-2.198,4.7,0.018c0.799,1.647,1.224,3.53,1.515,5.356C394.052,238.667,394.013,240.684,394.128,242.676z"/>
	<path fill-rule="evenodd" clip-rule="evenodd" fill="none" d="M421.12,243.47c-0.236,2.744-0.338,5.332-0.719,7.878
		c-0.248,1.652-1.239,3.013-2.711,3.921c-2.164,1.335-4.519,0.461-4.944-2.028c-0.297-1.741-0.356-3.596-0.104-5.34
		c0.398-2.756,2.101-4.086,5.157-4.415C418.777,243.381,419.776,243.47,421.12,243.47z"/>
	<path fill-rule="evenodd" clip-rule="evenodd" fill="none" d="M469.625,240.607c0.319-2.153,0.655-5.157,1.25-8.109
		c0.295-1.462,1.167-2.753,2.885-2.994c1.567-0.219,2.845,0.464,3.491,2.109c0.533,1.356,0.964,2.809,1.106,4.252
		c0.534,5.419,0.523,10.837-0.81,16.165c-0.227,0.907-0.648,1.81-1.169,2.589c-1.116,1.669-3.284,1.753-4.238,0.005
		c-0.858-1.571-1.455-3.375-1.744-5.146C469.967,246.851,469.911,244.162,469.625,240.607z"/>
	<path fill-rule="evenodd" clip-rule="evenodd" fill="none" d="M339.649,241.7c-0.504,3.54-0.972,7.085-1.543,10.615
		c-0.122,0.756-0.531,1.508-0.959,2.164c-1.211,1.854-3.432,1.947-4.449,0c-0.865-1.656-1.469-3.552-1.722-5.405
		c-0.641-4.714-0.777-9.469-0.063-14.199c0.17-1.127,0.529-2.254,0.987-3.301c0.534-1.219,1.435-2.082,2.924-2.105
		c1.537-0.025,2.441,0.826,3.067,2.082c1.135,2.275,1.214,4.766,1.398,7.227c0.072,0.954,0.012,1.917,0.012,2.876
		C339.418,241.669,339.534,241.685,339.649,241.7z"/>
</g>
<g>
</g>
<g>
</g>
<g>
</g>
<g>
</g>
<g>
</g>
<g>
</g>
</svg>
